<svg xmlns="http://www.w3.org/2000/svg" width="39.968" height="25.587" viewBox="0 0 39.968 25.587">
  <g id="applepay" transform="translate(0)">
    <path id="Trazado_35" data-name="Trazado 35" d="M36.389,0H3.169c-.115,0-.23,0-.345.005a5,5,0,0,0-.752.066,2.531,2.531,0,0,0-.714.235A2.4,2.4,0,0,0,.307,1.358a2.526,2.526,0,0,0-.235.715,4.968,4.968,0,0,0-.066.751c0,.115,0,.23-.005.345,0,.137,0,.273,0,.41V22.008c0,.137,0,.273,0,.41,0,.115,0,.23.005.345a4.965,4.965,0,0,0,.066.751,2.526,2.526,0,0,0,.235.715,2.4,2.4,0,0,0,1.051,1.05,2.532,2.532,0,0,0,.714.236,5.06,5.06,0,0,0,.752.066q.173,0,.345,0H36.8c.115,0,.23,0,.346,0a5.072,5.072,0,0,0,.752-.066,2.537,2.537,0,0,0,.714-.236,2.4,2.4,0,0,0,1.05-1.05,2.511,2.511,0,0,0,.235-.715,4.965,4.965,0,0,0,.066-.751c0-.115,0-.23.005-.345,0-.137,0-.273,0-.41V3.58c0-.137,0-.274,0-.41,0-.115,0-.23-.005-.345a4.968,4.968,0,0,0-.066-.751,2.511,2.511,0,0,0-.235-.715A2.4,2.4,0,0,0,38.61.308,2.536,2.536,0,0,0,37.9.072a5.008,5.008,0,0,0-.752-.066C37.028,0,36.913,0,36.8,0Z"/>
    <path id="Trazado_36" data-name="Trazado 36" d="M39.068,3.532h.4c.109,0,.219,0,.328.005a4.248,4.248,0,0,1,.624.053,1.687,1.687,0,0,1,.479.156,1.537,1.537,0,0,1,.391.284,1.555,1.555,0,0,1,.286.394,1.666,1.666,0,0,1,.156.479,4.235,4.235,0,0,1,.053.623c0,.108,0,.217.005.328,0,.134,0,.269,0,.4V24.687c0,.135,0,.269,0,.406,0,.109,0,.217-.005.326a4.225,4.225,0,0,1-.053.625,1.657,1.657,0,0,1-.156.477,1.549,1.549,0,0,1-.678.678,1.673,1.673,0,0,1-.476.156,4.353,4.353,0,0,1-.622.053c-.11,0-.22,0-.333,0H5.853l-.326,0a4.382,4.382,0,0,1-.624-.053,1.678,1.678,0,0,1-.48-.157,1.549,1.549,0,0,1-.676-.677,1.671,1.671,0,0,1-.156-.479,4.269,4.269,0,0,1-.053-.622c0-.109,0-.219,0-.327V5.854c0-.109,0-.218,0-.328A4.247,4.247,0,0,1,3.591,4.9a1.667,1.667,0,0,1,.156-.478,1.545,1.545,0,0,1,.677-.677A1.674,1.674,0,0,1,4.9,3.591a4.248,4.248,0,0,1,.624-.053c.109,0,.219,0,.327-.005H39.068" transform="translate(-2.679 -2.679)" fill="#fff"/>
    <g id="Grupo_40" data-name="Grupo 40" transform="translate(5.417 7.016)">
      <g id="Grupo_38" data-name="Grupo 38">
        <path id="Trazado_37" data-name="Trazado 37" d="M40.5,30.645a2.232,2.232,0,0,0,.513-1.59,2.213,2.213,0,0,0-1.466.759,2.089,2.089,0,0,0-.526,1.528,1.846,1.846,0,0,0,1.479-.7" transform="translate(-35.01 -29.055)"/>
        <path id="Trazado_38" data-name="Trazado 38" d="M28.436,38.973c-.817-.049-1.511.463-1.9.463S25.547,39,24.9,39.009a2.408,2.408,0,0,0-2.047,1.244c-.878,1.512-.232,3.756.622,4.988.415.609.914,1.28,1.572,1.256.622-.024.865-.4,1.621-.4s.975.4,1.633.39c.683-.012,1.109-.61,1.524-1.22a5.4,5.4,0,0,0,.682-1.4,2.215,2.215,0,0,1-1.328-2.012,2.257,2.257,0,0,1,1.072-1.89,2.334,2.334,0,0,0-1.816-.987" transform="translate(-22.435 -36.575)"/>
      </g>
      <g id="Grupo_39" data-name="Grupo 39" transform="translate(9.682 0.698)">
        <path id="Trazado_39" data-name="Trazado 39" d="M65.96,31.944a2.87,2.87,0,0,1,3.011,3,2.9,2.9,0,0,1-3.056,3.018H63.95v3.125H62.53V31.944Zm-2.01,4.831h1.629a1.82,1.82,0,1,0,.006-3.632H63.95Z" transform="translate(-62.53 -31.944)"/>
        <path id="Trazado_40" data-name="Trazado 40" d="M90.74,46.6c0-1.167.894-1.883,2.479-1.972l1.826-.108v-.513c0-.742-.5-1.186-1.337-1.186A1.277,1.277,0,0,0,92.3,43.8H91.006c.076-1.2,1.1-2.092,2.751-2.092,1.617,0,2.65.856,2.65,2.194v4.6H95.1V47.4h-.032a2.383,2.383,0,0,1-2.1,1.211A2.022,2.022,0,0,1,90.74,46.6Zm4.3-.6v-.526l-1.642.1c-.818.057-1.281.418-1.281.989s.482.964,1.217.964A1.6,1.6,0,0,0,95.044,46Z" transform="translate(-83.928 -39.352)"/>
        <path id="Trazado_41" data-name="Trazado 41" d="M117.27,51.332v-1.11a2.529,2.529,0,0,0,.444.025A1.111,1.111,0,0,0,118.9,49.3c0-.013.12-.406.12-.412l-2.409-6.676h1.483l1.686,5.427h.025l1.687-5.427h1.445l-2.5,7.018c-.57,1.617-1.23,2.137-2.612,2.137A5.325,5.325,0,0,1,117.27,51.332Z" transform="translate(-103.552 -39.73)"/>
      </g>
    </g>
  </g>
</svg>
