<svg xmlns="http://www.w3.org/2000/svg" width="40" height="25" viewBox="0 0 40 25">
  <g id="bankicon" transform="translate(-134 24.97)">
    <g id="bankicon-2" data-name="bankicon" transform="translate(146.493 -20.81)">
      <path id="Trazado_138" data-name="Trazado 138" d="M16.639,5.03l-7.6,4.681v1.376H23.9V9.711Z" transform="translate(-9.042 -5.03)"/>
      <path id="Trazado_139" data-name="Trazado 139" d="M17.4,47.175v.812h3.137v-.812h-.416V41.727h.416v-.812H17.4v.812h.416v5.448Z" transform="translate(-15.886 -34.406)"/>
      <path id="Trazado_140" data-name="Trazado 140" d="M41.13,47.175v.812h3.137v-.812h-.416V41.727h.416v-.812H41.13v.812h.416v5.448Z" transform="translate(-35.31 -34.406)"/>
      <path id="Trazado_141" data-name="Trazado 141" d="M64.857,47.175v.812h3.137v-.812h-.416V41.727h.416v-.812H64.857v.812h.416v5.448Z" transform="translate(-54.734 -34.406)"/>
      <g id="Trazado_149" data-name="Trazado 149" transform="translate(-12.493 -4.16)" fill="none">
        <path d="M3.429,0H36.571C38.465,0,40,.959,40,2.143V22.857C40,24.041,38.465,25,36.571,25H3.429C1.535,25,0,24.041,0,22.857V2.143C0,.959,1.535,0,3.429,0Z" stroke="none"/>
        <path d="M 3.428569793701172 0.5 C 2.605239868164063 0.5 1.838359832763672 0.6959095001220703 1.269199371337891 1.051630020141602 C 0.9819297790527344 1.231170654296875 0.5 1.611690521240234 0.5 2.142860412597656 L 0.5 22.85713958740234 C 0.5 23.38830947875977 0.9819297790527344 23.76882934570313 1.269199371337891 23.9483699798584 C 1.838359832763672 24.30409049987793 2.605239868164063 24.5 3.428569793701172 24.5 L 36.57143020629883 24.5 C 37.39476013183594 24.5 38.16164016723633 24.30409049987793 38.73080062866211 23.9483699798584 C 39.01807022094727 23.76882934570313 39.5 23.38830947875977 39.5 22.85713958740234 L 39.5 2.142860412597656 C 39.5 1.611690521240234 39.01807022094727 1.231170654296875 38.73080062866211 1.051630020141602 C 38.16164016723633 0.6959095001220703 37.39476013183594 0.5 36.57143020629883 0.5 L 3.428569793701172 0.5 M 3.428569793701172 0 L 36.57143020629883 0 C 38.46498107910156 0 40 0.9593906402587891 40 2.142860412597656 L 40 22.85713958740234 C 40 24.04060935974121 38.46498107910156 25 36.57143020629883 25 L 3.428569793701172 25 C 1.535018920898438 25 0 24.04060935974121 0 22.85713958740234 L 0 2.142860412597656 C 0 0.9593906402587891 1.535018920898438 0 3.428569793701172 0 Z" stroke="none"/>
      </g>
    </g>
    <rect id="Rectángulo_65" data-name="Rectángulo 65" width="14.593" height="2.313" transform="translate(146.493 -6.804)"/>
  </g>
</svg>
