<svg xmlns="http://www.w3.org/2000/svg" width="14" height="16" viewBox="0 0 14 16">
  <path id="calendaricon" d="M4.625-5A.376.376,0,0,0,5-5.375v-1.25A.376.376,0,0,0,4.625-7H3.375A.376.376,0,0,0,3-6.625v1.25A.376.376,0,0,0,3.375-5ZM8-5.375v-1.25A.376.376,0,0,0,7.625-7H6.375A.376.376,0,0,0,6-6.625v1.25A.376.376,0,0,0,6.375-5h1.25A.376.376,0,0,0,8-5.375Zm3,0v-1.25A.376.376,0,0,0,10.625-7H9.375A.376.376,0,0,0,9-6.625v1.25A.376.376,0,0,0,9.375-5h1.25A.376.376,0,0,0,11-5.375Zm-3,3v-1.25A.376.376,0,0,0,7.625-4H6.375A.376.376,0,0,0,6-3.625v1.25A.376.376,0,0,0,6.375-2h1.25A.376.376,0,0,0,8-2.375Zm-3,0v-1.25A.376.376,0,0,0,4.625-4H3.375A.376.376,0,0,0,3-3.625v1.25A.376.376,0,0,0,3.375-2h1.25A.376.376,0,0,0,5-2.375Zm6,0v-1.25A.376.376,0,0,0,10.625-4H9.375A.376.376,0,0,0,9-3.625v1.25A.376.376,0,0,0,9.375-2h1.25A.376.376,0,0,0,11-2.375ZM14-10.5A1.5,1.5,0,0,0,12.5-12H11v-1.625A.376.376,0,0,0,10.625-14H9.375A.376.376,0,0,0,9-13.625V-12H5v-1.625A.376.376,0,0,0,4.625-14H3.375A.376.376,0,0,0,3-13.625V-12H1.5A1.5,1.5,0,0,0,0-10.5V.5A1.5,1.5,0,0,0,1.5,2h11A1.5,1.5,0,0,0,14,.5ZM12.5.312A.188.188,0,0,1,12.312.5H1.687A.188.188,0,0,1,1.5.312V-9h11Z" transform="translate(0 14)" opacity="0.205"/>
</svg>
