<svg xmlns="http://www.w3.org/2000/svg" width="39.968" height="25.35" viewBox="0 0 39.968 25.35">
  <g id="Grupo_94" data-name="Grupo 94" transform="translate(-26 -164)">
    <g id="Grupo_42" data-name="Grupo 42" transform="translate(26 164)">
      <path id="Path_35" data-name="Path 35" d="M138.447,550.989H115.576c-.079,0-.159,0-.238,0a3.508,3.508,0,0,0-.518.046,1.742,1.742,0,0,0-.492.162,1.649,1.649,0,0,0-.723.723,1.731,1.731,0,0,0-.162.492,3.346,3.346,0,0,0-.046.517c0,.079,0,.159,0,.237v13.252c0,.079,0,.159,0,.237a3.332,3.332,0,0,0,.046.517,1.725,1.725,0,0,0,.162.492,1.644,1.644,0,0,0,.723.723,1.721,1.721,0,0,0,.492.162,3.411,3.411,0,0,0,.518.045c.079,0,.159,0,.238,0h23.152c.079,0,.158,0,.238,0a3.424,3.424,0,0,0,.518-.045,1.751,1.751,0,0,0,.492-.162,1.653,1.653,0,0,0,.723-.723,1.745,1.745,0,0,0,.162-.492,3.49,3.49,0,0,0,.046-.517c0-.079,0-.159,0-.237V553.171c0-.079,0-.158,0-.237a3.5,3.5,0,0,0-.046-.517,1.751,1.751,0,0,0-.162-.492,1.657,1.657,0,0,0-.723-.723,1.755,1.755,0,0,0-.492-.162,3.481,3.481,0,0,0-.52-.045c-.079,0-.159,0-.238,0Z" transform="translate(-113.395 -550.989)" fill="#030504"/>
      <path id="Path_36" data-name="Path 36" d="M138.823,551.951h.278c.075,0,.151,0,.226,0a2.944,2.944,0,0,1,.427.037,1.173,1.173,0,0,1,.33.108,1.073,1.073,0,0,1,.466.467,1.159,1.159,0,0,1,.107.33,3.038,3.038,0,0,1,.036.427c0,.074,0,.149,0,.226V566.8c0,.075,0,.149,0,.225a2.981,2.981,0,0,1-.037.43,1.151,1.151,0,0,1-.107.328,1.065,1.065,0,0,1-.467.467,1.141,1.141,0,0,1-.328.107,2.944,2.944,0,0,1-.427.037c-.076,0-.151,0-.229,0H115.731a2.946,2.946,0,0,1-.427-.037,1.145,1.145,0,0,1-.33-.108,1.062,1.062,0,0,1-.466-.466,1.144,1.144,0,0,1-.107-.33,2.937,2.937,0,0,1-.037-.427c0-.075,0-.151,0-.225V553.55c0-.075,0-.15,0-.226a2.79,2.79,0,0,1,.037-.427,1.14,1.14,0,0,1,.107-.33,1.061,1.061,0,0,1,.466-.466,1.159,1.159,0,0,1,.33-.107,2.946,2.946,0,0,1,.427-.037c.075,0,.151,0,.225,0h22.867" transform="translate(-113.771 -551.364)" fill="#fff"/>
      <g id="Grupo_46" data-name="Grupo 46" transform="translate(1.017 1.146)">
        <path id="Trazado_60" data-name="Trazado 60" d="M116.153,552.867a1.248,1.248,0,0,0-.892.231,1.512,1.512,0,0,0-.2.9v2.928h25.481V554a1,1,0,0,0-1.134-1.133Z" transform="translate(-115.061 -552.867)" fill="#004771" fill-rule="evenodd"/>
        <path id="Trazado_61" data-name="Trazado 61" d="M115.061,574.178c0,.777.367,1.175,1.092,1.175h23.256a1.024,1.024,0,0,0,1.134-1.175V571.25H115.061v2.928Z" transform="translate(-115.061 -560.032)" fill="#f39219" fill-rule="evenodd"/>
        <path id="Trazado_62" data-name="Trazado 62" d="M125.718,561.321a.536.536,0,0,1-.074.314l-1.836,3.2-.115-3.9h-2.938l.986.472a.806.806,0,0,1,.43.7l.273,4.145h1.438l3.442-5.321H125.56a.523.523,0,0,1,.157.389Z" transform="translate(-117.28 -556.01)" fill="#004771" fill-rule="evenodd"/>
        <path id="Trazado_63" data-name="Trazado 63" d="M145.486,561.089l.115-.157h-1.795c.063.063.084.095.084.115a1.88,1.88,0,0,1-.084.2l-2.613,4.765c-.063.084-.126.157-.2.241h1.48l-.073-.157a2.256,2.256,0,0,1,.231-.745l.315-.588h1.522c.063.493.1.9.126,1.207l-.126.283H146.3l-.273-.4-.546-4.765Zm-1.092,2.928H143.3l.934-1.795.157,1.795Z" transform="translate(-125.168 -556.01)" fill="#004771" fill-rule="evenodd"/>
        <path id="Trazado_64" data-name="Trazado 64" d="M137.294,560.485a2.42,2.42,0,0,0-1.48.472,1.193,1.193,0,0,0-.7,1.05,1.683,1.683,0,0,0,.5,1.249l1.018.7c.367.262.546.494.546.7a.638.638,0,0,1-.273.514.981.981,0,0,1-.63.2,4.906,4.906,0,0,1-1.868-.745v.976a3.862,3.862,0,0,0,1.983.619,2.3,2.3,0,0,0,1.564-.546,1.377,1.377,0,0,0,.157-2.3l-.976-.7c-.325-.262-.5-.493-.5-.671,0-.409.241-.619.735-.619a3.3,3.3,0,0,1,1.49.588l.2-1.018a3.5,3.5,0,0,0-1.763-.472Z" transform="translate(-122.601 -555.836)" fill="#004771" fill-rule="evenodd"/>
        <path id="Trazado_65" data-name="Trazado 65" d="M131.513,566.253c-.021-.22-.063-.42-.084-.63l1.333-4.3.315-.389h-1.92c.021.095.042.22.063.315a1.661,1.661,0,0,1-.021.315l-1.333,4.261-.273.43Z" transform="translate(-120.725 -556.01)" fill="#004771" fill-rule="evenodd"/>
      </g>
    </g>
    <g id="Grupo_47" data-name="Grupo 47" transform="translate(38.453 171.736)">
      <path id="Path_35-2" data-name="Path 35" d="M195.489,550.989H172.618c-.079,0-.159,0-.238,0a3.514,3.514,0,0,0-.518.046,1.755,1.755,0,0,0-.492.162,1.655,1.655,0,0,0-.723.723,1.751,1.751,0,0,0-.162.492,3.509,3.509,0,0,0-.046.517c0,.079,0,.159,0,.237v13.252c0,.079,0,.159,0,.237a3.494,3.494,0,0,0,.046.517,1.744,1.744,0,0,0,.162.492,1.65,1.65,0,0,0,.723.723,1.734,1.734,0,0,0,.492.162,3.425,3.425,0,0,0,.517.045c.079,0,.159,0,.238,0h23.152c.079,0,.158,0,.238,0a3.418,3.418,0,0,0,.518-.045,1.745,1.745,0,0,0,.492-.162,1.647,1.647,0,0,0,.723-.723,1.706,1.706,0,0,0,.162-.492,3.333,3.333,0,0,0,.046-.517c0-.079,0-.159,0-.237V553.171c0-.079,0-.158,0-.237a3.347,3.347,0,0,0-.046-.517,1.711,1.711,0,0,0-.162-.492,1.65,1.65,0,0,0-.723-.723,1.749,1.749,0,0,0-.492-.162,3.459,3.459,0,0,0-.52-.045c-.079,0-.159,0-.238,0Z" transform="translate(-170.437 -550.989)" fill="#030504"/>
      <path id="Path_36-2" data-name="Path 36" d="M195.865,551.951h.278c.075,0,.151,0,.226,0a2.946,2.946,0,0,1,.427.037,1.162,1.162,0,0,1,.33.108,1.065,1.065,0,0,1,.269.2,1.049,1.049,0,0,1,.2.271,1.142,1.142,0,0,1,.107.33,2.868,2.868,0,0,1,.036.427c0,.074,0,.149,0,.226V566.8c0,.075,0,.15,0,.225a2.822,2.822,0,0,1-.037.43,1.132,1.132,0,0,1-.107.328,1.06,1.06,0,0,1-.467.467,1.131,1.131,0,0,1-.328.107,2.947,2.947,0,0,1-.427.037c-.076,0-.151,0-.229,0H172.773a2.944,2.944,0,0,1-.427-.037,1.153,1.153,0,0,1-.33-.108,1.068,1.068,0,0,1-.466-.466,1.164,1.164,0,0,1-.107-.33,2.936,2.936,0,0,1-.037-.427c0-.075,0-.151,0-.225V553.55c0-.075,0-.15,0-.226a2.95,2.95,0,0,1,.037-.427,1.159,1.159,0,0,1,.107-.33,1.064,1.064,0,0,1,.466-.466,1.159,1.159,0,0,1,.33-.107,2.961,2.961,0,0,1,.427-.037c.075,0,.151,0,.225,0h22.867" transform="translate(-170.813 -551.364)" fill="#fff"/>
      <g id="Layer_2" data-name="Layer 2" transform="translate(5.349 2.269)">
        <g id="Layer_1-2" data-name="Layer 1-2" transform="translate(0 0)">
          <path id="Trazado_66" data-name="Trazado 66" d="M182.819,574.786v-.866a.515.515,0,0,0-.477-.549.594.594,0,0,0-.066,0,.534.534,0,0,0-.485.245.506.506,0,0,0-.456-.245.454.454,0,0,0-.4.205v-.17h-.3v1.38h.3v-.759a.324.324,0,0,1,.277-.364.338.338,0,0,1,.061,0c.2,0,.3.13.3.364v.768h.3v-.765a.324.324,0,0,1,.279-.364.307.307,0,0,1,.058,0c.205,0,.3.13.3.364v.768Zm4.485-1.38h-.494v-.419h-.3v.419h-.274v.274h.28v.635c0,.32.124.511.479.511a.7.7,0,0,0,.375-.107l-.087-.257a.553.553,0,0,1-.265.078c-.145,0-.2-.093-.2-.231v-.629h.491Zm2.561-.035a.408.408,0,0,0-.364.2v-.167h-.3v1.38h.3v-.774c0-.228.1-.355.289-.355a.492.492,0,0,1,.187.035l.093-.289a.656.656,0,0,0-.214-.038Zm-3.871.144a1.034,1.034,0,0,0-.563-.144c-.35,0-.578.167-.578.442,0,.225.168.364.477.407l.145.02c.164.023.242.066.242.144,0,.107-.11.168-.315.168a.734.734,0,0,1-.459-.145l-.144.234a.993.993,0,0,0,.6.179c.4,0,.629-.188.629-.45s-.182-.37-.482-.413l-.144-.02c-.13-.017-.234-.043-.234-.135s.1-.162.263-.162a.891.891,0,0,1,.433.118Zm8.042-.144a.407.407,0,0,0-.364.2v-.167h-.3v1.38h.3v-.774c0-.228.1-.355.289-.355a.5.5,0,0,1,.188.035l.092-.289a.65.65,0,0,0-.214-.038Zm-3.869.722a.7.7,0,0,0,.671.722.6.6,0,0,0,.065,0,.724.724,0,0,0,.5-.164l-.145-.243a.608.608,0,0,1-.361.125.443.443,0,0,1,0-.884.608.608,0,0,1,.361.124l.145-.242a.724.724,0,0,0-.5-.165.7.7,0,0,0-.735.657.593.593,0,0,0,0,.065Zm2.812,0v-.687h-.3v.167a.523.523,0,0,0-.433-.2.722.722,0,1,0,0,1.443.524.524,0,0,0,.433-.2v.167h.3Zm-1.117,0a.417.417,0,1,1,0,.032C191.86,574.114,191.86,574.1,191.861,574.093Zm-3.623-.722a.722.722,0,1,0,.02,1.443h0a.837.837,0,0,0,.573-.187l-.144-.223a.654.654,0,0,1-.4.145.382.382,0,0,1-.413-.337H188.9V574.1a.656.656,0,0,0-.655-.721Zm0,.268a.342.342,0,0,1,.35.334h-.722a.355.355,0,0,1,.367-.335Zm7.522.456v-1.244h-.289v.722a.523.523,0,0,0-.433-.2.722.722,0,1,0,0,1.443.524.524,0,0,0,.433-.2v.167h.289Zm.5.489a.142.142,0,0,1,.1.039.137.137,0,0,1,.031.043.133.133,0,0,1-.031.15.141.141,0,0,1-.045.029.13.13,0,0,1-.055.012.144.144,0,0,1-.13-.084.135.135,0,0,1,0-.107.137.137,0,0,1,.031-.043.143.143,0,0,1,.045-.029.14.14,0,0,1,.059-.01Zm0,.244a.109.109,0,0,0,.042-.009.1.1,0,0,0,.033-.023.108.108,0,0,0,0-.145.117.117,0,0,0-.033-.023.11.11,0,0,0-.042-.009.107.107,0,0,0-.042.009.1.1,0,0,0-.035.168.111.111,0,0,0,.081.032Zm.009-.172a.06.06,0,0,1,.038.012.037.037,0,0,1,.013.031.035.035,0,0,1-.01.026.052.052,0,0,1-.031.013l.041.048h-.033l-.039-.048h-.013v.048h-.027v-.127Zm-.032.025v.034h.032a.029.029,0,0,0,.018,0,.016.016,0,0,0,0-.013.016.016,0,0,0,0-.013.029.029,0,0,0-.018,0Zm-1.588-.586a.418.418,0,1,1,0,.033C194.649,574.117,194.649,574.106,194.65,574.1Zm-10.138,0v-.69h-.3v.167a.523.523,0,0,0-.433-.2.722.722,0,1,0,0,1.443.524.524,0,0,0,.433-.2v.167h.3Zm-1.117,0a.386.386,0,1,1,0,.036.354.354,0,0,1,0-.036Z" transform="translate(-179.759 -561.778)" fill="#1a1718"/>
          <g id="_Group_" data-name=" Group ">
            <rect id="Rectángulo_53" data-name="Rectángulo 53" width="4.547" height="8.172" transform="translate(6.134 1.112)" fill="#ed4815"/>
            <path id="_Path_" data-name=" Path " d="M185.626,559.9a5.188,5.188,0,0,1,1.985-4.086,5.2,5.2,0,1,0,0,8.171A5.188,5.188,0,0,1,185.626,559.9Z" transform="translate(-179.203 -554.707)" fill="#e1001a"/>
            <path id="Trazado_67" data-name="Trazado 67" d="M201.389,559.9a5.2,5.2,0,0,1-8.409,4.085,5.195,5.195,0,0,0,0-8.171,5.2,5.2,0,0,1,8.409,4.085Z" transform="translate(-184.572 -554.706)" fill="#f78a0b"/>
            <path id="Trazado_68" data-name="Trazado 68" d="M205.879,568.37V568.2h.068v-.035h-.171v.035h.073v.167Zm.334,0v-.2h-.052l-.06.144-.06-.144h-.046v.2h.037v-.151l.057.131h.039l.056-.131v.153Z" transform="translate(-189.559 -559.953)" fill="#f78a0b"/>
          </g>
        </g>
      </g>
    </g>
  </g>
</svg>
