<svg xmlns="http://www.w3.org/2000/svg" width="39.968" height="25.306" viewBox="0 0 39.968 25.306">
  <g id="googlepay" transform="translate(328.001 -1.09)">
    <g id="GooglePay_mark_800_gray" data-name="GooglePay mark 800 gray" transform="translate(-328.001 1.09)">
      <g id="border">
        <path id="Fill-1" d="M36.388.09H3.169c-.115,0-.23,0-.345.005a5.046,5.046,0,0,0-.752.065,2.549,2.549,0,0,0-.714.233A2.4,2.4,0,0,0,.749.831a2.372,2.372,0,0,0-.442.6,2.477,2.477,0,0,0-.235.707,4.854,4.854,0,0,0-.066.743C0,3,0,3.111,0,3.224c0,.135,0,.27,0,.406V21.856c0,.135,0,.27,0,.406,0,.114,0,.228.005.341a4.851,4.851,0,0,0,.066.743,2.481,2.481,0,0,0,.235.707,2.385,2.385,0,0,0,1.051,1.039,2.55,2.55,0,0,0,.714.233,5.12,5.12,0,0,0,.752.065c.115,0,.23,0,.345,0H36.8q.172,0,.346,0a5.133,5.133,0,0,0,.752-.065,2.555,2.555,0,0,0,.714-.233,2.387,2.387,0,0,0,1.05-1.039,2.464,2.464,0,0,0,.235-.707,4.863,4.863,0,0,0,.066-.743c0-.114,0-.228.005-.341,0-.135,0-.27,0-.406V3.63c0-.135,0-.271,0-.406,0-.114,0-.227-.005-.341A4.866,4.866,0,0,0,39.9,2.14a2.459,2.459,0,0,0-.235-.707A2.387,2.387,0,0,0,38.609.394,2.554,2.554,0,0,0,37.9.161,5.058,5.058,0,0,0,37.144.1c-.116,0-.231,0-.346-.005h-.41" transform="translate(0.001 -0.09)" fill="#3c4043" fill-rule="evenodd"/>
        <path id="wihit-fill" d="M44.6,9.148H45c.109,0,.218,0,.328.005a4.32,4.32,0,0,1,.624.052,1.708,1.708,0,0,1,.479.154,1.539,1.539,0,0,1,.677.668,1.624,1.624,0,0,1,.156.472,4.116,4.116,0,0,1,.053.614c0,.107,0,.214,0,.324,0,.133,0,.265,0,.4V29.991c0,.133,0,.265,0,.4,0,.107,0,.214,0,.321a4.107,4.107,0,0,1-.053.616,1.615,1.615,0,0,1-.156.47,1.537,1.537,0,0,1-.678.668,1.686,1.686,0,0,1-.476.153,4.393,4.393,0,0,1-.622.052c-.11,0-.22,0-.333,0H11.385l-.326,0a4.423,4.423,0,0,1-.624-.052,1.686,1.686,0,0,1-.48-.155,1.538,1.538,0,0,1-.676-.667,1.632,1.632,0,0,1-.156-.472,4.135,4.135,0,0,1-.053-.613c0-.108,0-.215,0-.322V11.436c0-.108,0-.215,0-.323a4.116,4.116,0,0,1,.054-.615,1.631,1.631,0,0,1,.156-.471,1.518,1.518,0,0,1,.285-.386,1.54,1.54,0,0,1,.392-.281,1.692,1.692,0,0,1,.478-.154,4.318,4.318,0,0,1,.624-.052c.109,0,.219,0,.327-.005H44.6" transform="translate(-8.211 -8.26)" fill="#fffffe" fill-rule="evenodd"/>
      </g>
      <g id="GPay-logo" transform="translate(4.657 6.866)">
        <g id="Pay" transform="translate(13.447 0.748)">
          <path id="Shape" d="M193.543,90.942v3.8H192.4V85.363h3.02a2.629,2.629,0,0,1,1.952.815,2.818,2.818,0,0,1,.127,3.829l-.127.135a2.656,2.656,0,0,1-1.952.8Zm0-4.427V89.79h1.91a1.449,1.449,0,0,0,1.125-.486,1.718,1.718,0,0,0-.035-2.326,1.509,1.509,0,0,0-1.089-.464Z" transform="translate(-192.404 -85.362)" fill="#3c4043"/>
          <path id="Shape-2" data-name="Shape" d="M256.381,113.428a2.753,2.753,0,0,1,1.995.71,2.6,2.6,0,0,1,.729,1.959v3.956h-1.089v-.89h-.049a2.15,2.15,0,0,1-1.881,1.1,2.363,2.363,0,0,1-1.676-.628,2.033,2.033,0,0,1-.672-1.57,1.958,1.958,0,0,1,.714-1.585,2.873,2.873,0,0,1,1.9-.591,3.278,3.278,0,0,1,1.669.389V116a1.441,1.441,0,0,0-.467-1.069,1.605,1.605,0,0,0-1.1-.441,1.71,1.71,0,0,0-1.506.853l-1-.666A2.709,2.709,0,0,1,256.381,113.428Zm-1.471,4.659a.99.99,0,0,0,.375.785,1.343,1.343,0,0,0,.884.314,1.761,1.761,0,0,0,1.28-.561,1.812,1.812,0,0,0,.566-1.324,2.191,2.191,0,0,0-1.485-.441,1.894,1.894,0,0,0-1.16.352A1.063,1.063,0,0,0,254.91,118.087Z" transform="translate(-247.964 -110.675)" fill="#3c4043"/>
          <path id="Path" d="M318.884,115.563l-3.805,9.236H313.9l1.415-3.231-2.5-6.005h1.238l1.8,4.607h.021l1.761-4.607Z" transform="translate(-301.492 -112.601)" fill="#3c4043" fill-rule="evenodd"/>
        </g>
        <g id="Super-G">
          <path id="Path-2" data-name="Path" d="M108.518,123.822a7.029,7.029,0,0,0-.085-1.092h-4.8V124.8h2.751a2.506,2.506,0,0,1-1.018,1.638v1.346H107A5.409,5.409,0,0,0,108.518,123.822Z" transform="translate(-98.537 -118.317)" fill="#4285f4" fill-rule="evenodd"/>
          <path id="Path-3" data-name="Path" d="M59.847,147.517a4.72,4.72,0,0,0,3.374-1.3l-1.641-1.346a2.932,2.932,0,0,1-1.733.516,3.071,3.071,0,0,1-2.857-2.221H55.3v1.391A5.064,5.064,0,0,0,59.847,147.517Z" transform="translate(-54.753 -136.747)" fill="#34a853" fill-rule="evenodd"/>
          <path id="Path-4" data-name="Path" d="M51.729,111.462a3.426,3.426,0,0,1,0-2.064v-1.384h-1.69a5.612,5.612,0,0,0,0,4.831Z" transform="translate(-49.492 -105.045)" fill="#fbbc04" fill-rule="evenodd"/>
          <path id="Path-5" data-name="Path" d="M59.847,79.872a2.662,2.662,0,0,1,1.952.808l1.457-1.541a4.771,4.771,0,0,0-3.409-1.4A5.071,5.071,0,0,0,55.3,80.71l1.69,1.391A3.069,3.069,0,0,1,59.847,79.872Z" transform="translate(-54.753 -77.741)" fill="#ea4335" fill-rule="evenodd"/>
        </g>
      </g>
    </g>
  </g>
</svg>
