<svg xmlns="http://www.w3.org/2000/svg" width="12.245" height="15.19" viewBox="0 0 12.245 15.19">
  <g id="kyclevelicon" transform="translate(-194.285 -147.92)">
    <path id="Trazado_131" data-name="Trazado 131" d="M20.631,15.19H11A1.31,1.31,0,0,1,9.7,13.881V1.309A1.31,1.31,0,0,1,11,0h7.487a.45.45,0,0,1,.316.13l3,3a.446.446,0,0,1,.13.316V13.881A1.311,1.311,0,0,1,20.631,15.19ZM11,.893a.416.416,0,0,0-.415.415V13.881A.416.416,0,0,0,11,14.3H20.63a.421.421,0,0,0,.415-.415V3.63L18.306.893Z" transform="translate(184.59 147.92)"/>
    <path id="Trazado_132" data-name="Trazado 132" d="M68.123,3.892h-3a.447.447,0,0,1-.447-.447v-3A.447.447,0,0,1,65.441.13l3,3a.447.447,0,0,1-.316.763ZM65.571,3h1.473L65.571,1.525Z" transform="translate(137.958 147.921)"/>
    <path id="Trazado_133" data-name="Trazado 133" d="M32.69,75.946H26.225a.447.447,0,1,1,0-.893H32.69a.447.447,0,1,1,0,.893Z" transform="translate(170.95 84.268)"/>
    <path id="Trazado_134" data-name="Trazado 134" d="M32.69,58.3H26.225a.447.447,0,0,1,0-.893H32.69a.447.447,0,1,1,0,.893Z" transform="translate(170.95 99.234)"/>
    <path id="Trazado_135" data-name="Trazado 135" d="M32.69,40.652H26.225a.447.447,0,0,1,0-.893H32.69a.447.447,0,1,1,0,.893Z" transform="translate(170.95 114.201)"/>
  </g>
</svg>
