<svg version="1.0" xmlns="http://www.w3.org/2000/svg"
 width="376.000000pt" height="376.000000pt" viewBox="0 0 376.000000 376.000000"
 preserveAspectRatio="xMidYMid meet">
<g transform="translate(0.000000,376.000000) scale(0.100000,-0.100000)"
fill="currentColor" id="icon"  stroke="none">
<path d="M2090 3744 c-73 -15 -207 -62 -215 -74 -3 -5 -35 -25 -72 -46 -45
-25 -100 -71 -170 -142 -57 -58 -103 -109 -103 -114 0 -5 -15 -33 -34 -61 -77
-116 -118 -270 -123 -457 -2 -74 0 -143 5 -155 5 -11 15 -45 22 -75 16 -72 60
-199 74 -213 7 -7 24 -33 39 -59 69 -118 233 -269 358 -328 41 -19 76 -38 80
-42 10 -14 164 -49 257 -58 56 -5 129 -5 184 1 92 9 249 45 258 58 3 4 40 24
82 44 42 21 85 45 94 55 10 9 37 31 60 47 41 29 154 149 154 163 0 4 11 20 25
35 26 28 95 161 95 184 0 7 4 13 9 13 13 0 39 113 51 221 17 149 -5 327 -56
437 -60 132 -76 162 -85 162 -6 0 -8 4 -5 9 4 5 3 11 -1 13 -5 1 -27 28 -51
59 -53 71 -163 167 -239 210 -32 18 -60 36 -63 39 -9 12 -121 51 -205 71 -97
23 -324 25 -425 3z"/>
<path d="M1540 1681 c-8 -5 -51 -11 -95 -14 -124 -9 -266 -50 -383 -110 -57
-28 -111 -59 -120 -67 -9 -9 -35 -29 -57 -45 -22 -16 -64 -53 -94 -82 l-54
-53 -71 0 -71 0 3 43 c3 35 -2 48 -26 77 l-30 35 -250 0 c-232 0 -251 -1 -271
-19 -21 -19 -21 -20 -21 -713 0 -680 0 -693 20 -713 19 -19 33 -20 274 -20
l255 0 25 33 c19 25 26 46 26 80 l0 47 1053 0 c1007 0 1104 3 1162 30 11 5 58
26 105 48 121 56 202 129 310 280 17 23 38 51 48 61 9 10 33 42 52 70 19 29
43 62 53 74 11 12 35 46 54 75 19 28 38 52 42 52 4 0 15 15 26 33 18 31 128
180 179 243 79 96 100 240 52 346 -51 113 -154 178 -281 178 -133 0 -196 -42
-407 -270 -246 -267 -236 -258 -246 -230 -5 14 -11 30 -13 35 -2 6 -20 33 -39
61 -37 55 -90 94 -155 114 -22 7 -50 16 -63 21 -13 5 -105 9 -205 9 l-182 0
-64 62 c-35 34 -84 75 -109 91 -24 15 -51 34 -58 42 -20 19 -181 76 -237 82
-26 3 -50 10 -53 14 -7 11 -64 11 -84 0z m114 -200 c3 -5 22 -12 42 -16 56
-10 136 -48 174 -83 19 -18 38 -32 42 -32 4 0 32 -30 64 -67 31 -38 68 -73 83
-80 17 -8 92 -12 221 -13 107 0 213 -5 234 -10 55 -12 89 -40 105 -86 12 -36
12 -43 -7 -85 -37 -81 -24 -79 -613 -79 -563 0 -561 0 -574 -60 -9 -42 3 -87
28 -105 33 -23 1138 -22 1215 0 29 9 52 19 52 23 0 4 20 18 44 31 25 13 69 51
98 84 29 34 80 89 113 122 33 34 98 104 145 156 135 149 232 245 267 263 86
43 193 -10 196 -97 1 -32 -66 -144 -137 -228 -17 -20 -60 -78 -96 -128 -36
-51 -76 -104 -89 -119 -13 -15 -35 -45 -49 -67 -15 -22 -40 -56 -57 -76 -16
-20 -57 -74 -90 -119 -72 -100 -149 -171 -209 -196 -25 -11 -46 -22 -46 -26 0
-4 -24 -15 -52 -25 -49 -16 -128 -18 -1108 -21 l-1055 -3 0 391 0 390 104 0
104 0 52 53 c113 115 204 181 325 238 50 23 190 59 232 59 15 0 30 5 33 10 8
12 202 13 209 1z"/>
</g>
</svg>
