<svg id="attach_money-24px" xmlns="http://www.w3.org/2000/svg" width="23" height="23" viewBox="0 0 23 23">
  <path id="Trazado_113" data-name="Trazado 113" d="M0,0H23V23H0Z" fill="none"/>
  <path id="Trazado_114" data-name="Trazado 114" d="M11.572,10.571C9.4,10.005,8.7,9.421,8.7,8.51c0-1.045.968-1.773,2.587-1.773,1.706,0,2.338.815,2.4,2.013H15.8A3.82,3.82,0,0,0,12.722,5.1V3H9.847V5.07c-1.859.4-3.354,1.61-3.354,3.46,0,2.214,1.83,3.316,4.5,3.958,2.4.575,2.875,1.418,2.875,2.31,0,.661-.47,1.715-2.588,1.715-1.974,0-2.75-.882-2.856-2.013H6.32a4.015,4.015,0,0,0,3.527,3.67v2.08h2.875V18.19c1.869-.355,3.354-1.438,3.354-3.4C16.076,12.066,13.747,11.136,11.572,10.571Z" transform="translate(-0.263 -0.125)"/>
</svg>
