<svg xmlns="http://www.w3.org/2000/svg" width="39.968" height="25.587" viewBox="0 0 39.968 25.587">
  <g id="wiretransfer" transform="translate(0)">
    <path id="Trazado_35" data-name="Trazado 35" d="M36.389,0H3.169c-.115,0-.23,0-.345.005a5,5,0,0,0-.752.066,2.531,2.531,0,0,0-.714.235A2.4,2.4,0,0,0,.307,1.358a2.526,2.526,0,0,0-.235.715,4.968,4.968,0,0,0-.066.751c0,.115,0,.23-.005.345,0,.137,0,.273,0,.41V22.008c0,.137,0,.273,0,.41,0,.115,0,.23.005.345a4.965,4.965,0,0,0,.066.751,2.526,2.526,0,0,0,.235.715,2.4,2.4,0,0,0,1.051,1.05,2.532,2.532,0,0,0,.714.236,5.06,5.06,0,0,0,.752.066q.173,0,.345,0H36.8c.115,0,.23,0,.346,0a5.072,5.072,0,0,0,.752-.066,2.537,2.537,0,0,0,.714-.236,2.4,2.4,0,0,0,1.05-1.05,2.511,2.511,0,0,0,.235-.715,4.965,4.965,0,0,0,.066-.751c0-.115,0-.23.005-.345,0-.137,0-.273,0-.41V3.58c0-.137,0-.274,0-.41,0-.115,0-.23-.005-.345a4.968,4.968,0,0,0-.066-.751,2.511,2.511,0,0,0-.235-.715A2.4,2.4,0,0,0,38.61.308,2.536,2.536,0,0,0,37.9.072a5.008,5.008,0,0,0-.752-.066C37.028,0,36.913,0,36.8,0Z"/>
    <path id="Trazado_36" data-name="Trazado 36" d="M39.068,3.532h.4c.109,0,.219,0,.328.005a4.248,4.248,0,0,1,.624.053,1.687,1.687,0,0,1,.479.156,1.537,1.537,0,0,1,.391.284,1.555,1.555,0,0,1,.286.394,1.666,1.666,0,0,1,.156.479,4.235,4.235,0,0,1,.053.623c0,.108,0,.217.005.328,0,.134,0,.269,0,.4V24.687c0,.135,0,.269,0,.406,0,.109,0,.217-.005.326a4.225,4.225,0,0,1-.053.625,1.657,1.657,0,0,1-.156.477,1.549,1.549,0,0,1-.678.678,1.673,1.673,0,0,1-.476.156,4.353,4.353,0,0,1-.622.053c-.11,0-.22,0-.333,0H5.853l-.326,0a4.382,4.382,0,0,1-.624-.053,1.678,1.678,0,0,1-.48-.157,1.549,1.549,0,0,1-.676-.677,1.671,1.671,0,0,1-.156-.479,4.269,4.269,0,0,1-.053-.622c0-.109,0-.219,0-.327V5.854c0-.109,0-.218,0-.328A4.247,4.247,0,0,1,3.591,4.9a1.667,1.667,0,0,1,.156-.478,1.545,1.545,0,0,1,.677-.677A1.674,1.674,0,0,1,4.9,3.591a4.248,4.248,0,0,1,.624-.053c.109,0,.219,0,.327-.005H39.068" transform="translate(-2.679 -2.679)" fill="#fff"/>
    <path id="Trazado_138" data-name="Trazado 138" d="M16.639,5.03l-7.6,4.681v1.376H23.9V9.711Z" transform="translate(3.451 -0.72)"/>
    <path id="Trazado_139" data-name="Trazado 139" d="M17.4,47.175v.812h3.137v-.812h-.416V41.727h.416v-.812H17.4v.812h.416v5.448Z" transform="translate(-3.393 -30.096)"/>
    <path id="Trazado_140" data-name="Trazado 140" d="M41.13,47.175v.812h3.137v-.812h-.416V41.727h.416v-.812H41.13v.812h.416v5.448Z" transform="translate(-22.817 -30.096)"/>
    <path id="Trazado_141" data-name="Trazado 141" d="M64.857,47.175v.812h3.137v-.812h-.416V41.727h.416v-.812H64.857v.812h.416v5.448Z" transform="translate(-42.241 -30.096)"/>
    <rect id="Rectángulo_65" data-name="Rectángulo 65" width="14.593" height="2.313" transform="translate(12.493 18.316)"/>
  </g>
</svg>
