<svg xmlns="http://www.w3.org/2000/svg" width="12.594" height="12.594" viewBox="0 0 12.594 12.594">
  <path id="deleteicon" d="M6.5-11.172a6.3,6.3,0,0,0-6.3,6.3,6.3,6.3,0,0,0,6.3,6.3,6.3,6.3,0,0,0,6.3-6.3A6.3,6.3,0,0,0,6.5-11.172Zm3.087,7.95a.3.3,0,0,1,0,.432l-1.005,1a.3.3,0,0,1-.432,0L6.5-3.453,4.847-1.788a.3.3,0,0,1-.432,0l-1-1.005a.3.3,0,0,1,0-.432l1.666-1.65L3.413-6.528a.3.3,0,0,1,0-.432L4.418-7.965a.3.3,0,0,1,.432,0L6.5-6.3,8.153-7.962a.3.3,0,0,1,.432,0L9.59-6.957a.3.3,0,0,1,0,.432L7.922-4.875Z" transform="translate(-0.203 11.172)" fill="#9a9a9a"/>
</svg>
