<svg xmlns="http://www.w3.org/2000/svg" width="16" height="16" viewBox="0 0 16 16">
  <path id="icon" d="M0-1.334V0C0,1.1,2.687,2,6,2s6-.9,6-2V-1.334C10.709-.425,8.35,0,6,0S1.291-.425,0-1.334ZM10-10c3.312,0,6-.9,6-2s-2.687-2-6-2-6,.9-6,2S6.687-10,10-10ZM0-4.612V-3C0-1.9,2.687-1,6-1s6-.9,6-2V-4.612C10.709-3.55,8.347-3,6-3S1.291-3.55,0-4.612Zm13,.344c1.791-.347,3-.991,3-1.731V-7.334a7.674,7.674,0,0,1-3,1.078ZM6-9C2.687-9,0-7.881,0-6.5S2.687-4,6-4s6-1.119,6-2.5S9.312-9,6-9Zm6.853,1.759C14.728-7.578,16-8.241,16-9v-1.334a10.173,10.173,0,0,1-5.022,1.306A3.5,3.5,0,0,1,12.853-7.241Z" transform="translate(0 14)" fill="currentColor"/>
</svg>
