<svg viewBox="0 0 6 9">
    <path fill="currentColor" fill-rule="evenodd" clip-rule="evenodd" d="M3.52316 4.63201L3.48993 5.75078H2.34901V4.07816C2.83639 4.01909 3.22593 3.93232 3.51762 3.81786C3.80932 3.7034 4.02162 3.5594 4.15455 3.38586C4.28747 3.21232 4.35393 2.99632 4.35393 2.73786C4.35393 2.42032 4.24132 2.1674 4.01608 1.97909C3.79085 1.79078 3.44562 1.69663 2.98039 1.69663C2.5447 1.69663 2.19024 1.81847 1.91701 2.06216C1.64378 2.30586 1.48132 2.64555 1.42962 3.08124L0.333008 2.58278C0.414239 2.19878 0.573008 1.86278 0.809316 1.57478C1.04562 1.28678 1.35208 1.06155 1.7287 0.899088C2.10532 0.736626 2.54839 0.655396 3.05793 0.655396C3.5527 0.655396 3.99393 0.731088 4.38162 0.882472C4.76932 1.03386 5.07208 1.25355 5.28993 1.54155C5.50778 1.82955 5.6167 2.17663 5.6167 2.58278C5.6167 3.01847 5.52255 3.38216 5.33424 3.67386C5.14593 3.96555 4.89301 4.18709 4.57547 4.33847C4.25793 4.48986 3.90716 4.5877 3.52316 4.63201ZM3.51762 7.96616C3.36624 8.10647 3.16501 8.17663 2.91393 8.17663C2.67024 8.17663 2.4727 8.10647 2.32132 7.96616C2.16993 7.82586 2.09424 7.63755 2.09424 7.40124C2.09424 7.16493 2.16993 6.97478 2.32132 6.83078C2.4727 6.68678 2.67024 6.61478 2.91393 6.61478C3.16501 6.61478 3.36624 6.68678 3.51762 6.83078C3.66901 6.97478 3.7447 7.16493 3.7447 7.40124C3.7447 7.63755 3.66901 7.82586 3.51762 7.96616Z" />
</svg>