<svg xmlns="http://www.w3.org/2000/svg" width="20.147" height="13.015" viewBox="0 0 20.147 13.015">
  <path id="icon" d="M3.407,31.042H19.949v1.442a.432.432,0,0,1-.432.432H3.84a.432.432,0,0,1-.432-.432ZM15.8,23.53a4.124,4.124,0,0,1,.09-.855H3.84a.432.432,0,0,0-.432.432v6.046H19.949v-1.5h-.024A4.132,4.132,0,0,1,15.8,23.53Zm7.757,0a3.632,3.632,0,0,1-3.109,3.588c-.082.012-.165.022-.249.028s-.165.012-.249.013h-.024A3.616,3.616,0,0,1,16.4,22.676c.02-.084.041-.167.067-.249s.058-.167.091-.249a3.628,3.628,0,0,1,7,1.352Zm-4.47-1.016a.419.419,0,0,1,.024-.088.549.549,0,0,1,.179-.249,1.022,1.022,0,0,1,.389-.185,1.4,1.4,0,0,1,.472-.04l.025,0a1.2,1.2,0,0,1,.716.308.249.249,0,0,0,.351-.353,1.711,1.711,0,0,0-1.048-.455h-.018v-.342a.249.249,0,0,0-.5,0v.366a1.326,1.326,0,0,0-1.007.7.931.931,0,0,0-.073.249c0,.011,0,.022-.006.034a.936.936,0,0,0,0,.215,1.124,1.124,0,0,0,.255.575,1.55,1.55,0,0,0,.828.507,1.718,1.718,0,0,0,.265.046h.007a1.274,1.274,0,0,1,.225.042l.024.009a.986.986,0,0,1,.249.114.787.787,0,0,1,.186.158.556.556,0,0,1,.133.419.573.573,0,0,1-.319.413,1.108,1.108,0,0,1-.249.1l-.024.006a1.349,1.349,0,0,1-.225.039,1.432,1.432,0,0,1-.247,0l-.025,0a1.2,1.2,0,0,1-.716-.308.249.249,0,1,0-.35.353,1.71,1.71,0,0,0,1.048.455h.018v.342a.249.249,0,0,0,.249.249.233.233,0,0,0,.024,0,.246.246,0,0,0,.225-.244V25.58l.024,0a1.723,1.723,0,0,0,.249-.067,1.137,1.137,0,0,0,.814-.908,1.056,1.056,0,0,0-.243-.788,1.347,1.347,0,0,0-.571-.4,1.656,1.656,0,0,0-.249-.071l-.024-.005a1.823,1.823,0,0,0-.189-.027c-.012,0-.024-.005-.036-.007a1.192,1.192,0,0,1-.273-.068,1.031,1.031,0,0,1-.443-.3.659.659,0,0,1-.133-.259A.462.462,0,0,1,19.085,22.515Z" transform="translate(-3.407 -19.901)" fill="currentColor"/>
</svg>
