<svg
  width="24"
  height="24"
  viewBox="0 0 24 24"
  fill="none"
  xmlns="http://www.w3.org/2000/svg"
>
  <path
    d="M21.08 8.58003V15.42C21.08 16.54 20.4799 17.58 19.5099 18.15L13.5699 21.58C12.5999 22.14 11.3999 22.14 10.4199 21.58L4.47992 18.15C3.50992 17.59 2.90991 16.55 2.90991 15.42V8.58003C2.90991 7.46003 3.50992 6.41999 4.47992 5.84999L10.4199 2.42C11.3899 1.86 12.5899 1.86 13.5699 2.42L19.5099 5.84999C20.4799 6.41999 21.08 7.45003 21.08 8.58003Z"
    stroke="var(--error-color-2)"
    stroke-width="1.5"
    stroke-linecap="round"
    stroke-linejoin="round"
  />
  <path
    d="M8.46967 14.4697C8.17678 14.7626 8.17678 15.2374 8.46967 15.5303C8.76256 15.8232 9.23744 15.8232 9.53033 15.5303L8.46967 14.4697ZM15.5303 9.53033C15.8232 9.23744 15.8232 8.76256 15.5303 8.46967C15.2374 8.17678 14.7626 8.17678 14.4697 8.46967L15.5303 9.53033ZM14.4697 15.5303C14.7626 15.8232 15.2374 15.8232 15.5303 15.5303C15.8232 15.2374 15.8232 14.7626 15.5303 14.4697L14.4697 15.5303ZM9.53033 8.46967C9.23744 8.17678 8.76256 8.17678 8.46967 8.46967C8.17678 8.76256 8.17678 9.23744 8.46967 9.53033L9.53033 8.46967ZM9.53033 15.5303L15.5303 9.53033L14.4697 8.46967L8.46967 14.4697L9.53033 15.5303ZM15.5303 14.4697L9.53033 8.46967L8.46967 9.53033L14.4697 15.5303L15.5303 14.4697Z"
    fill="var(--error-color-2)"
  />
</svg>
