<?xml version="1.0" encoding="utf-8"?>
<!-- Generator: Adobe Illustrator 16.0.0, SVG Export Plug-In . SVG Version: 6.00 Build 0)  -->
<!DOCTYPE svg PUBLIC "-//W3C//DTD SVG 1.1//EN" "http://www.w3.org/Graphics/SVG/1.1/DTD/svg11.dtd">
<svg version="1.1" id="Layer_1" xmlns="http://www.w3.org/2000/svg" xmlns:xlink="http://www.w3.org/1999/xlink" x="0px" y="0px"
	 width="256px" height="256px" viewBox="0 0 256 256" enable-background="new 0 0 256 256" xml:space="preserve">
<g>
	<path fill="#F4C568" d="M131.886,220.492c-1.429,0.131-2.824,0.212-4.16,0.212h-0.006c-0.004,0-0.004,0-0.004,0
		c-0.016,0-0.03-0.002-0.049-0.002c-1.322,0-2.691-0.079-4.096-0.206c-17.118-0.759-33.026-6.092-46.51-14.908
		c-0.368,0.053-0.217,0.5,0.65,1.369l47.423,47.41c1.42,1.423,3.754,1.423,5.183,0l47.409-47.41
		c0.874-0.873,1.012-1.316,0.645-1.369C164.898,214.398,148.991,219.729,131.886,220.492z"/>
	<path fill="#F4C568" d="M254.395,125.162l-47.439-47.451c-1.418-1.424-1.858-1.111-0.964,0.696c0,0,0.06,0.117,0.166,0.335
		c6.142,9.757,10.488,20.728,12.654,32.476l-61.976,4.771c-4.647-11.55-15.914-19.679-29.11-19.679
		c-17.325,0-31.414,14.031-31.414,31.443c0,17.296,14.089,31.37,31.414,31.37c13.204,0,24.474-8.161,29.12-19.681l62.045,4.752
		c-2.174,12.352-6.754,23.866-13.314,34.013c-0.079,0.604,0.396,0.506,1.379-0.486l47.439-47.38
		C255.817,128.917,255.817,126.586,254.395,125.162z"/>
	<path fill="#F4C568" d="M78.402,49.443c0,0,0.44-0.216,1.186-0.571c10.662-6.501,22.711-10.896,35.638-12.642
		c4.353-0.925,8.627-1.514,12.5-1.514c3.873,0,8.145,0.589,12.51,1.516c12.906,1.748,24.95,6.142,35.603,12.64
		c0.749,0.354,1.191,0.571,1.191,0.571c1.807,0.891,2.114,0.457,0.695-0.968L130.316,1.066c-1.428-1.423-3.762-1.423-5.183,0
		L77.71,48.475C76.286,49.899,76.594,50.334,78.402,49.443z"/>
	<path fill="#F4C568" d="M49.221,78.835c0.125-0.265,0.209-0.429,0.209-0.429c0.893-1.807,0.456-2.12-0.974-0.696L1.069,125.162
		c-1.425,1.424-1.425,3.755,0,5.179l47.388,47.38c1.003,1.004,1.484,1.099,1.391,0.471c-8.029-12.426-13.146-26.861-14.446-42.421
		c-0.427-2.788-0.686-5.493-0.686-8.017c0-2.602,0.269-5.383,0.725-8.248C36.792,104.643,41.685,90.836,49.221,78.835z"/>
</g>
</svg>
