<svg width="22" height="22" viewBox="0 0 22 22" fill="none" xmlns="http://www.w3.org/2000/svg">
    <path
        d="M15.5835 16.8944H11.9168L7.83757 19.6077C7.23257 20.0111 6.41674 19.5803 6.41674 18.8469V16.8944C3.66671 16.8944 1.83336 15.0611 1.83336 12.311V6.81092C1.83336 4.06089 3.66671 2.22754 6.41674 2.22754H15.5835C18.3335 2.22754 20.1669 4.06089 20.1669 6.81092V12.311C20.1669 15.0611 18.3335 16.8944 15.5835 16.8944Z"
        stroke="#0316C1" stroke-width="1.5" stroke-miterlimit="10" stroke-linecap="round" stroke-linejoin="round" />
    <path
        d="M11.0002 10.4134V10.2209C11.0002 9.59757 11.3852 9.26755 11.7702 9.00171C12.146 8.74504 12.5218 8.41505 12.5218 7.81004C12.5218 6.9667 11.8435 6.28833 11.0002 6.28833C10.1568 6.28833 9.47852 6.9667 9.47852 7.81004"
        stroke="#0316C1" stroke-width="1.5" stroke-linecap="round" stroke-linejoin="round" />
    <path d="M10.996 12.6043H11.0042" stroke="#0316C1" stroke-width="1.5" stroke-linecap="round"
        stroke-linejoin="round" />
</svg>