<svg width="20" height="20" viewBox="0 0 20 20" fill="none" xmlns="http://www.w3.org/2000/svg">
    <path d="M19.0037 10C19.0037 14.9726 14.9726 19.0037 10 19.0037" stroke="#0316C1" stroke-width="1.5"
        stroke-linecap="round" stroke-linejoin="round" />
    <path d="M0.996216 10.0001C0.996216 5.02745 5.02733 0.996338 9.99997 0.996338" stroke="#0316C1" stroke-width="1.5"
        stroke-linecap="round" stroke-linejoin="round" />
    <path
        d="M0.996216 10.0002C0.996356 11.0549 1.18394 12.1011 1.55021 13.0901C1.71772 13.5494 2.18999 13.823 2.67177 13.7398L3.65837 13.5658C4.45578 13.4252 4.99784 12.6773 4.88333 11.8758L4.58639 9.79718C4.5289 9.39479 4.31063 9.03293 3.98151 8.79438C3.65239 8.55584 3.24058 8.46101 2.84027 8.53159L1.07895 8.84215"
        stroke="#0316C1" stroke-width="1.5" stroke-linecap="round" stroke-linejoin="round" />
    <path d="M19.0037 10.0001C19.0037 5.02745 14.9726 0.996338 10 0.996338" stroke="#0316C1" stroke-width="1.5"
        stroke-linecap="round" stroke-linejoin="round" />
    <path
        d="M19.0037 10.0002C19.0036 11.0549 18.816 12.1011 18.4497 13.0901C18.2822 13.5494 17.8099 13.823 17.3281 13.7398L16.3415 13.5658C15.5441 13.4252 15.0021 12.6773 15.1166 11.8758L15.4135 9.79718C15.471 9.39479 15.6893 9.03293 16.0184 8.79438C16.3475 8.55584 16.7593 8.46101 17.1596 8.53159L18.921 8.84215"
        stroke="#0316C1" stroke-width="1.5" stroke-linecap="round" stroke-linejoin="round" />
    <path
        d="M11.4931 10.4913C11.4901 10.4913 11.4874 10.4931 11.4862 10.4959C11.4851 10.4987 11.4857 10.5019 11.4878 10.504C11.49 10.5062 11.4932 10.5068 11.496 10.5057C11.4988 10.5045 11.5006 10.5018 11.5006 10.4987C11.5007 10.4967 11.5 10.4948 11.4985 10.4933C11.4971 10.4919 11.4951 10.4912 11.4931 10.4913"
        stroke="#0316C1" stroke-width="1.5" stroke-linecap="round" stroke-linejoin="round" />
    <path
        d="M8.5068 10.4942C8.50377 10.4942 8.50104 10.496 8.49989 10.4988C8.49873 10.5016 8.49937 10.5048 8.50151 10.507C8.50365 10.5091 8.50687 10.5097 8.50966 10.5086C8.51245 10.5074 8.51427 10.5047 8.51427 10.5017C8.5144 10.4997 8.51366 10.4977 8.51223 10.4962C8.51079 10.4948 8.50881 10.4941 8.5068 10.4942"
        stroke="#0316C1" stroke-width="1.5" stroke-linecap="round" stroke-linejoin="round" />
</svg>