<?xml version="1.0" standalone="no"?>
<!DOCTYPE svg PUBLIC "-//W3C//DTD SVG 20010904//EN"
 "http://www.w3.org/TR/2001/REC-SVG-20010904/DTD/svg10.dtd">
<svg version="1.0" xmlns="http://www.w3.org/2000/svg"
 width="2100.000000pt" height="350.000000pt" viewBox="0 0 2100.000000 350.000000"
 preserveAspectRatio="xMidYMid meet">

<g transform="translate(0.000000,350.000000) scale(0.100000,-0.100000)"
fill="#000000" stroke="none">
<path d="M1565 2754 c-187 -41 -389 -187 -480 -346 l-25 -43 0 163 0 162 -285
0 -285 0 0 -135 0 -134 147 -3 148 -3 3 -792 2 -793 135 0 135 0 0 579 c0 561
1 581 21 647 80 259 265 433 495 465 252 36 482 -127 561 -397 15 -52 17 -127
21 -676 l3 -618 135 0 134 0 0 573 c0 631 1 635 64 770 80 172 203 283 371
333 86 26 231 24 309 -5 154 -55 272 -180 327 -346 10 -31 14 -187 19 -680 l5
-640 283 -3 282 -2 0 135 0 135 -143 0 -144 0 -6 496 c-8 539 -11 578 -68 725
-79 205 -265 370 -479 426 -90 24 -274 23 -360 -1 -92 -25 -197 -80 -283 -147
-76 -59 -186 -185 -215 -246 -9 -18 -18 -33 -21 -33 -3 0 -24 35 -46 78 -57
113 -181 234 -295 290 -47 23 -112 49 -145 57 -90 23 -237 28 -320 9z"/>
<path d="M5250 2758 c-98 -13 -274 -77 -370 -133 -105 -62 -259 -211 -326
-314 -219 -341 -212 -785 17 -1116 317 -459 948 -580 1413 -271 132 88 344
328 322 364 -7 11 -178 130 -198 137 -9 4 -31 -19 -62 -65 -101 -147 -258
-257 -438 -306 -44 -13 -102 -18 -193 -18 -109 -1 -142 3 -205 22 -138 44
-226 96 -325 196 -117 118 -172 220 -209 389 l-6 27 849 0 849 0 7 48 c9 68
-12 248 -40 347 -75 259 -238 465 -466 589 -175 96 -405 134 -619 104z m324
-274 c137 -35 276 -124 361 -232 48 -60 126 -210 143 -274 l10 -38 -699 0
c-553 0 -699 3 -699 13 1 28 68 176 107 233 93 137 271 260 428 298 83 20 271
20 349 0z"/>
<path d="M8035 2760 c-66 -13 -149 -48 -211 -89 -79 -50 -183 -165 -222 -243
l-32 -63 0 163 0 162 -415 0 -415 0 0 -135 0 -135 280 0 280 0 0 -660 0 -660
-280 0 -280 0 0 -140 0 -140 765 0 765 0 0 140 0 140 -351 0 -350 0 3 463 c3
452 4 463 27 532 60 182 162 320 279 377 64 32 71 33 187 33 110 0 125 -3 175
-27 30 -15 66 -35 79 -46 24 -19 24 -20 8 -61 -23 -56 -22 -142 2 -189 72
-139 252 -164 348 -47 130 157 6 439 -248 564 -124 61 -276 85 -394 61z"/>
<path d="M15195 2760 c-175 -38 -342 -165 -427 -325 l-37 -70 -1 163 0 162
-415 0 -415 0 0 -135 0 -135 280 0 280 0 0 -660 0 -660 -280 0 -280 0 0 -140
0 -140 765 0 765 0 0 140 0 140 -351 0 -350 0 4 458 c4 515 2 502 84 672 55
114 135 200 228 246 56 27 68 29 180 29 129 0 176 -13 252 -71 l33 -25 -20
-37 c-38 -71 -21 -183 38 -246 109 -116 311 -67 353 86 30 114 -12 245 -114
355 -118 126 -260 191 -434 198 -54 2 -116 0 -138 -5z"/>
<path d="M19334 2756 c-291 -56 -522 -205 -677 -438 -65 -98 -97 -165 -134
-287 -25 -80 -27 -99 -27 -271 0 -174 2 -190 28 -275 108 -351 374 -610 722
-701 83 -22 122 -27 239 -28 81 0 165 5 200 12 395 85 692 363 792 738 36 137
38 354 5 488 -76 304 -288 560 -570 688 -160 73 -414 105 -578 74z m371 -286
c205 -64 366 -201 455 -385 58 -122 73 -199 68 -352 -4 -113 -9 -138 -37 -214
-148 -398 -584 -592 -975 -433 -201 81 -378 282 -432 489 -105 405 150 817
562 909 97 22 266 15 359 -14z"/>
<path d="M9800 2741 c-316 -69 -590 -288 -722 -578 -58 -129 -81 -241 -81
-403 -1 -165 16 -256 76 -397 95 -225 310 -440 531 -532 151 -63 224 -76 416
-75 147 0 187 4 252 22 189 52 334 136 468 271 81 81 170 201 170 228 0 18
-213 159 -218 144 -2 -6 -24 -38 -48 -72 -117 -159 -272 -261 -463 -305 -106
-25 -294 -15 -396 20 -110 38 -207 97 -285 176 -358 358 -251 973 207 1186
102 48 189 66 318 65 190 0 357 -60 476 -170 l61 -56 -26 -45 c-33 -57 -36
-151 -7 -208 119 -231 458 -102 401 152 -30 133 -166 305 -331 417 -84 57
-228 123 -324 150 -115 31 -355 36 -475 10z"/>
<path d="M11240 2555 l0 -134 148 -3 147 -3 5 -530 c6 -514 7 -532 29 -605 72
-238 238 -414 457 -486 83 -27 100 -29 239 -28 137 0 156 2 225 27 122 44 206
100 312 208 l97 98 3 -137 3 -137 283 -3 282 -2 0 140 0 140 -145 0 -145 0 0
795 0 795 -140 0 -140 0 0 -592 0 -593 -25 -68 c-36 -103 -81 -173 -170 -263
-94 -95 -186 -145 -309 -170 -64 -13 -91 -14 -144 -6 -157 26 -304 136 -375
282 -66 133 -67 146 -67 813 l0 597 -285 0 -285 0 0 -135z"/>
<path d="M16150 2555 l0 -135 139 0 139 0 15 -37 c9 -21 162 -387 342 -813
180 -426 327 -784 327 -795 0 -11 -66 -188 -146 -394 -80 -205 -146 -375 -146
-377 0 -3 66 -3 147 -2 l146 3 466 1202 466 1202 143 1 142 0 0 140 0 140
-405 0 -405 0 0 -135 0 -135 115 0 c63 0 115 -3 115 -6 0 -15 -484 -1254 -490
-1254 -4 0 -126 280 -271 623 l-265 622 116 5 115 5 3 138 3 137 -406 0 -405
0 0 -135z"/>
</g>
</svg>
