<?xml version="1.0" encoding="utf-8"?>
<svg viewBox="294.604 -61.07 313.374 286.551" xmlns="http://www.w3.org/2000/svg">
  <g transform="matrix(0.1, 0, 0, -0.1, 251.424545, 281.855164)" fill="#000000" stroke="none">
    <path d="M3101 3414 c-251 -91 -320 -392 -131 -568 78 -73 126 -91 245 -91 87 0 107 3 155 26 69 32 131 93 167 161 24 46 28 64 28 143 0 76 -4 98 -26 145 -33 69 -95 132 -167 167 -70 34 -201 43 -271 17z"/>
    <path d="M1596 3090 c-438 -50 -829 -312 -1024 -687 -159 -306 -183 -670 -67 -993 121 -334 404 -621 740 -751 495 -192 1051 -82 1423 280 344 333 468 825 322 1272 -143 437 -526 770 -989 859 -118 23 -299 32 -405 20z"/>
  </g>
</svg>