<?xml version="1.0" standalone="no"?>
<!DOCTYPE svg PUBLIC "-//W3C//DTD SVG 20010904//EN"
 "http://www.w3.org/TR/2001/REC-SVG-20010904/DTD/svg10.dtd">
<svg version="1.0" xmlns="http://www.w3.org/2000/svg"
 width="496.000000pt" height="132.000000pt" viewBox="0 0 496.000000 132.000000"
 preserveAspectRatio="xMidYMid meet">

<g transform="translate(0.000000,132.000000) scale(0.100000,-0.100000)"
fill="#000000" stroke="none">
<path d="M2200 1153 c-14 -2 -52 -13 -85 -25 -205 -72 -335 -253 -335 -468 0
-132 44 -243 132 -336 96 -102 203 -151 348 -161 332 -21 591 254 542 573 -38
245 -259 427 -512 422 -36 0 -76 -3 -90 -5z m215 -200 c68 -23 155 -110 178
-177 9 -27 17 -79 17 -116 0 -97 -23 -155 -89 -221 -66 -65 -127 -90 -223 -91
-82 0 -135 15 -194 55 -186 126 -173 423 25 530 90 49 182 56 286 20z"/>
<path d="M4148 1144 c-91 -22 -177 -71 -243 -138 -71 -73 -109 -139 -130 -227
-76 -324 166 -618 511 -619 148 0 272 47 362 137 92 92 132 195 132 340 l0 63
-247 -2 -248 -3 -3 -82 -3 -83 151 0 151 0 -7 -22 c-18 -59 -81 -117 -155
-143 -59 -22 -190 -21 -253 0 -137 47 -208 148 -209 296 0 164 98 279 261 309
108 19 209 -9 286 -80 25 -23 49 -40 53 -38 40 17 153 84 153 91 0 20 -120
125 -177 155 -110 58 -262 76 -385 46z"/>
<path d="M180 787 c0 -402 3 -424 71 -500 169 -193 555 -156 658 62 l26 56 3
368 3 367 -100 0 -100 0 -3 -354 -3 -354 -25 -27 c-40 -43 -76 -57 -150 -57
-82 0 -141 27 -167 75 -16 28 -18 69 -21 375 l-3 342 -95 0 -94 0 0 -353z"/>
<path d="M1040 1050 l0 -90 135 0 135 0 0 -390 0 -390 95 0 95 0 0 390 0 390
135 0 135 0 0 90 0 90 -365 0 -365 0 0 -90z"/>
<path d="M2950 660 l0 -480 95 0 95 0 0 165 0 165 78 0 77 -1 98 -164 98 -165
106 0 105 0 -14 23 c-74 117 -198 326 -198 335 0 6 9 13 20 17 10 3 40 26 65
51 101 98 125 234 63 355 -40 77 -115 141 -190 164 -40 11 -103 15 -275 15
l-223 0 0 -480z m466 281 c41 -25 69 -95 60 -146 -4 -20 -22 -53 -41 -73 l-33
-37 -131 -3 -131 -4 0 141 0 141 123 0 c102 0 127 -3 153 -19z"/>
</g>
</svg>
