<?xml version="1.0" standalone="no"?>
<!DOCTYPE svg PUBLIC "-//W3C//DTD SVG 20010904//EN"
 "http://www.w3.org/TR/2001/REC-SVG-20010904/DTD/svg10.dtd">
<svg version="1.0" xmlns="http://www.w3.org/2000/svg"
 width="600.000000pt" height="315.000000pt" viewBox="0 0 600.000000 315.000000"
 preserveAspectRatio="xMidYMid meet">

<g transform="translate(0.000000,315.000000) scale(0.100000,-0.100000)"
fill="#000000" stroke="none">
<path d="M517 2560 c-94 -36 -150 -95 -193 -201 -14 -35 -33 -82 -43 -104 -10
-22 -22 -51 -26 -65 -4 -14 -20 -52 -35 -85 -15 -33 -31 -71 -35 -84 -4 -13
-43 -110 -86 -214 -44 -105 -79 -197 -79 -204 0 -10 43 -13 187 -15 210 -3
211 -4 179 -73 -9 -18 -16 -42 -16 -53 0 -21 -15 -61 -64 -174 -9 -20 -16 -39
-16 -42 0 -7 -36 -90 -51 -118 -5 -10 -9 -22 -9 -28 0 -6 68 -10 190 -10 207
0 205 1 175 -56 -30 -57 -37 -55 248 -52 l262 3 53 29 c30 17 71 51 93 77 112
134 368 472 363 480 -3 5 -93 9 -200 9 -206 0 -210 1 -185 48 15 28 51 111 51
118 0 3 7 22 16 42 19 43 36 83 55 132 7 19 26 59 41 89 15 29 28 55 28 57 0
2 -87 4 -194 4 -131 0 -197 4 -202 11 -3 6 -2 21 4 32 9 19 157 379 183 445
l9 22 -328 -1 c-291 -1 -332 -3 -375 -19z"/>
<path d="M2063 2064 c-6 -15 -3 -86 18 -439 5 -88 12 -224 15 -303 8 -168 -7
-154 167 -150 114 3 119 4 133 28 14 25 60 124 164 350 79 173 93 200 100 200
4 0 10 -42 13 -92 14 -236 29 -426 36 -453 l7 -30 130 -3 c71 -1 134 1 140 5
5 5 34 62 64 128 89 200 101 227 141 313 22 46 39 85 39 87 0 2 15 36 34 77
18 40 45 98 58 128 14 30 35 77 47 103 12 26 19 52 16 57 -3 6 -55 10 -116 10
l-109 0 -29 -62 c-15 -35 -59 -133 -96 -218 -37 -85 -81 -184 -98 -220 l-30
-65 -8 40 c-4 22 -12 138 -18 258 -7 120 -14 224 -18 233 -4 12 -27 14 -137
12 l-131 -3 -35 -71 c-19 -38 -77 -159 -129 -267 -52 -108 -98 -194 -103 -191
-4 3 -9 96 -9 207 -1 111 -4 234 -8 272 l-6 70 -118 3 c-101 2 -118 0 -124
-14z"/>
<path d="M3503 2065 c-3 -9 0 -42 6 -73 13 -68 32 -165 61 -322 12 -63 33
-171 46 -239 13 -69 24 -141 24 -161 0 -113 -86 -200 -196 -200 -37 0 -46 -4
-53 -22 -13 -38 -33 -169 -27 -176 13 -12 129 -14 189 -2 109 21 176 68 251
174 36 51 211 363 386 691 24 44 46 85 50 90 4 6 31 55 60 110 29 55 57 105
62 112 20 26 -5 33 -115 33 -62 0 -117 -4 -122 -8 -6 -4 -69 -124 -140 -267
-143 -289 -133 -281 -155 -135 -5 36 -16 110 -25 165 -8 55 -19 129 -25 164
-5 35 -15 68 -22 72 -7 5 -66 9 -131 9 -97 0 -119 -3 -124 -15z"/>
<path d="M4889 2060 c-36 -19 -87 -75 -105 -115 -6 -15 -10 -2 -14 50 l-5 70
-105 0 -105 0 -82 -410 c-45 -225 -83 -426 -85 -445 l-3 -35 124 -3 c68 -1
128 1 133 6 4 4 19 66 33 137 42 216 76 368 91 415 34 103 68 124 197 119 l90
-4 48 95 c26 52 48 101 48 108 2 36 -196 46 -260 12z"/>
<path d="M5478 2056 c-36 -13 -82 -33 -101 -45 -79 -48 -160 -165 -193 -276
-25 -84 -24 -262 2 -327 46 -113 123 -181 249 -221 56 -18 92 -22 185 -21 69
1 133 7 160 15 l45 15 13 74 c19 112 19 126 2 121 -172 -46 -286 -40 -354 19
-39 35 -59 77 -54 116 l3 29 129 2 c145 2 229 22 307 71 103 66 158 215 113
305 -53 105 -150 147 -334 146 -83 0 -119 -5 -172 -23z m233 -165 c34 -35 37
-68 8 -105 -33 -41 -76 -58 -166 -64 -94 -6 -105 3 -83 61 33 82 101 136 173
137 30 0 45 -7 68 -29z"/>
</g>
</svg>
