<svg width="10" height="7" viewBox="0 0 10 7" fill="none" xmlns="http://www.w3.org/2000/svg">
<path d="M1.53033 0.96967C1.23744 0.676777 0.762563 0.676777 0.46967 0.96967C0.176777 1.26256 0.176777 1.73744 0.46967 2.03033L1.53033 0.96967ZM5 5.5L4.46967 6.03033C4.76256 6.32322 5.23744 6.32322 5.53033 6.03033L5 5.5ZM9.53033 2.03033C9.82322 1.73744 9.82322 1.26256 9.53033 0.96967C9.23744 0.676777 8.76256 0.676777 8.46967 0.96967L9.53033 2.03033ZM0.46967 2.03033L4.46967 6.03033L5.53033 4.96967L1.53033 0.96967L0.46967 2.03033ZM5.53033 6.03033L9.53033 2.03033L8.46967 0.96967L4.46967 4.96967L5.53033 6.03033Z" fill="#7C7D82"/>
</svg>
