<svg width="14" height="12" viewBox="0 0 14 12" fill="none" xmlns="http://www.w3.org/2000/svg">
    <path d="M13.1773 11.9987H0.821923C0.583749 11.9987 0.36367 11.8716 0.244586 11.6653C0.125501 11.4591 0.125503 11.2049 0.24459 10.9987L6.42192 0.331995C6.5411 0.126069 6.761 -0.000732422 6.99892 -0.000732422C7.23685 -0.000732422 7.45674 0.126069 7.57592 0.331995L13.7533 10.9987C13.8723 11.2048 13.8724 11.4588 13.7534 11.665C13.6345 11.8713 13.4146 11.9984 13.1766 11.9987H13.1773ZM6.33326 8.66533V9.99866H6.95526H6.99859H7.04192H7.66526V8.66533H6.33326ZM6.33326 3.99866V7.332H7.66659V3.99866H6.33326Z" fill="var(--error-color)"/>
</svg>
