<svg fill="none" xmlns="http://www.w3.org/2000/svg">
  <path
    fill-rule="evenodd"
    clip-rule="evenodd"
    d="M22 44c12.15 0 22-9.85 22-22S34.15 0 22 0 0 9.85 0 22s9.85 22 22 22Zm-2.443-14.94h3.665c0-.93.124-1.795.374-2.598.25-.802.736-1.524 1.458-2.164a31.888 31.888 0 0 0 2.384-2.37 11.953 11.953 0 0 0 1.833-2.654c.486-.953.729-1.994.729-3.123 0-1.468-.309-2.735-.926-3.801-.618-1.08-1.517-1.907-2.7-2.484C25.205 9.289 23.787 9 22.118 9c-1.51 0-2.877.27-4.098.81-1.222.539-2.194 1.316-2.917 2.332-.709 1.017-1.077 2.233-1.103 3.651h3.645c.014-.878.23-1.587.65-2.126a3.71 3.71 0 0 1 1.656-1.223 5.972 5.972 0 0 1 2.167-.396c.92 0 1.688.17 2.306.508.63.34 1.103.822 1.418 1.45.329.627.493 1.373.493 2.239 0 .853-.158 1.586-.473 2.201a7.261 7.261 0 0 1-1.241 1.694c-.5.514-1.051 1.066-1.655 1.656-.828.815-1.492 1.543-1.99 2.183-.5.64-.861 1.348-1.084 2.126-.21.765-.322 1.75-.335 2.954Zm.394 4.534c-.368.389-.552.866-.552 1.43 0 .54.184 1.004.552 1.393.368.389.9.583 1.596.583.71 0 1.248-.194 1.616-.583.367-.39.551-.853.551-1.393 0-.564-.184-1.041-.551-1.43-.368-.389-.907-.583-1.616-.583-.696 0-1.228.194-1.596.583Z"
    fill="#edf0f4"
  />
</svg>
