<svg width="14" height="14" viewBox="0 0 14 14" fill="none" xmlns="http://www.w3.org/2000/svg">
<path d="M6.66671 12.3333L9.90671 5.84667H7.66671V1.66667L4.33337 8.15334H6.66671V12.3333ZM7.00004 0.333336C8.83337 0.333336 10.4 1 11.7 2.3C13 3.6 13.6667 5.16667 13.6667 7C13.6667 8.83334 13 10.4 11.7 11.7C10.4 13 8.83337 13.6667 7.00004 13.6667C5.16671 13.6667 3.60004 13 2.30004 11.7C1.00004 10.4 0.333374 8.83334 0.333374 7C0.333374 5.16667 1.00004 3.6 2.30004 2.3C3.60004 1 5.16671 0.333336 7.00004 0.333336Z" fill="#004BEB"/>
</svg>
