<svg width="20" height="20" viewBox="0 0 20 20" fill="none" xmlns="http://www.w3.org/2000/svg">
    <path d="M10 20C4.47715 20 0 15.5228 0 10C0 4.47715 4.47715 0 10 0C15.5228 0 20 4.47715 20 10C19.9939 15.5203 15.5203 19.9939 10 20ZM9 15V17H11V15H9ZM10 5C11.1046 5 12 5.89543 12 7C12.0035 7.53073 11.7904 8.03994 11.41 8.41L10.17 9.67C9.42144 10.4217 9.00081 11.4391 9 12.5V13H11C10.9223 11.925 11.3559 10.8763 12.17 10.17L13.07 9.25C13.6681 8.65432 14.003 7.84411 14 7C14 4.79086 12.2091 3 10 3C7.79086 3 6 4.79086 6 7H8C8 5.89543 8.89543 5 10 5Z" fill="#2E3A59"/>
</svg>