<svg width="14" height="14" viewBox="0 0 14 14" fill="none" xmlns="http://www.w3.org/2000/svg">
<path d="M7.00004 0.333333C10.6667 0.333333 13.6667 3.33333 13.6667 7C13.6667 10.6667 10.6667 13.6667 7.00004 13.6667C3.33337 13.6667 0.333374 10.6667 0.333374 7C0.333374 3.33333 3.33337 0.333333 7.00004 0.333333ZM8.94671 7.54C8.22671 7.54 7.63337 8.04 7.47337 8.70667C7.11337 8.55333 6.77337 8.59333 6.52671 8.7C6.36671 8.03333 5.76671 7.54 5.05337 7.54C4.22004 7.54 3.54671 8.21333 3.54671 9.04667C3.54671 9.88 4.22004 10.5533 5.05337 10.5533C5.85337 10.5533 6.49337 9.94667 6.55337 9.16667C6.68671 9.08 7.02671 8.90667 7.44671 9.17333C7.47482 9.56381 7.65394 9.92797 7.94607 10.1886C8.23821 10.4492 8.62038 10.5857 9.01152 10.5692C9.40265 10.5528 9.77199 10.3846 10.0412 10.1003C10.3103 9.81606 10.4582 9.43812 10.4534 9.04667C10.4534 8.21333 9.78004 7.54 8.94671 7.54ZM5.05337 7.96667C5.66671 7.96667 6.13337 8.45333 6.13337 9.04667C6.13337 9.64 5.66671 10.1267 5.05337 10.1267C4.46004 10.1267 3.97337 9.64 3.97337 9.04667C3.97337 8.45333 4.46004 7.96667 5.05337 7.96667ZM8.94671 7.96667C9.54004 7.96667 10.0267 8.45333 10.0267 9.04667C10.0267 9.64 9.54004 10.1267 8.94671 10.1267C8.33337 10.1267 7.86671 9.64 7.86671 9.04667C7.86671 8.45333 8.33337 7.96667 8.94671 7.96667ZM10.8867 6.66667H3.11337V7.11333H10.8867V6.66667ZM8.43337 3.59333C8.38797 3.49607 8.30916 3.41835 8.21127 3.3743C8.11339 3.33025 8.00295 3.32281 7.90004 3.35333L7.00004 3.66667L6.10004 3.35333L6.07337 3.33333C5.96846 3.31079 5.85894 3.32665 5.76473 3.37804C5.67052 3.42942 5.59789 3.51292 5.56004 3.61333L4.57337 6.22H9.42671L8.44004 3.61333L8.43337 3.59333Z" fill="#004BEB"/>
</svg>
