<svg width="34" height="34" viewBox="0 0 34 34" fill="none" xmlns="http://www.w3.org/2000/svg">
    <rect x="1" y="1" width="32" height="32" rx="8" stroke="#ABADB8" />
    <path
        d="M21.5303 13.5303C21.8232 13.2374 21.8232 12.7626 21.5303 12.4697C21.2374 12.1768 20.7626 12.1768 20.4697 12.4697L21.5303 13.5303ZM13.4697 19.4697C13.1768 19.7626 13.1768 20.2374 13.4697 20.5303C13.7626 20.8232 14.2374 20.8232 14.5303 20.5303L13.4697 19.4697ZM20.4697 12.4697L13.4697 19.4697L14.5303 20.5303L21.5303 13.5303L20.4697 12.4697Z"
        fill="#ABADB8" />
    <path
        d="M13.4697 13.5303C13.1768 13.2374 13.1768 12.7626 13.4697 12.4697C13.7626 12.1768 14.2374 12.1768 14.5303 12.4697L13.4697 13.5303ZM21.5303 19.4697C21.8232 19.7626 21.8232 20.2374 21.5303 20.5303C21.2374 20.8232 20.7626 20.8232 20.4697 20.5303L21.5303 19.4697ZM14.5303 12.4697L21.5303 19.4697L20.4697 20.5303L13.4697 13.5303L14.5303 12.4697Z"
        fill="#ABADB8" />
</svg>