<svg width="104" height="75" viewBox="0 0 104 75" fill="none" xmlns="http://www.w3.org/2000/svg">
<path d="M34.1865 3.93028H61.536L72.2805 19.5586M72.2805 19.5586H40.0471M72.2805 19.5586L84.9784 36.1636M84.9784 36.1636H98.6532M84.9784 36.1636H46.8845M84.9784 36.1636L72.2805 53.7454M98.6532 36.1636H72.7688H46.8845M98.6532 36.1636H99.63M46.8845 36.1636H45.9077M72.2805 53.7454H53.7219M72.2805 53.7454L61.536 70.3505H34.1865" stroke="#292D32" stroke-width="7.81414" stroke-linecap="round"/>
<rect x="13.6748" y="1.00002" width="9.76768" height="7.81414" rx="3.90707" fill="#292D32"/>
<path opacity="0.33" d="M0 20.5353C0 18.3775 1.74926 16.6282 3.90707 16.6282H5.8606C8.01842 16.6282 9.76768 18.3775 9.76768 20.5353C9.76768 22.6931 8.01842 24.4424 5.86061 24.4424H3.90708C1.74926 24.4424 0 22.6931 0 20.5353Z" fill="#292D32"/>
<rect x="19.5352" y="16.6282" width="9.76768" height="7.81414" rx="3.90707" fill="#292D32"/>
<rect x="11.7214" y="32.2566" width="9.76768" height="7.81414" rx="3.90707" fill="#292D32"/>
<rect x="27.3499" y="32.2566" width="9.76768" height="7.81414" rx="3.90707" fill="#292D32"/>
<rect x="33.2102" y="49.8384" width="9.76768" height="7.81414" rx="3.90707" fill="#292D32"/>
<rect opacity="0.33" x="19.5352" y="49.8384" width="9.76768" height="7.81414" rx="3.90707" fill="#292D32"/>
<rect opacity="0.33" x="13.6748" y="65.4666" width="9.76768" height="7.81414" rx="3.90707" fill="#292D32"/>
<rect x="1.95337" y="49.8384" width="9.76768" height="7.81414" rx="3.90707" fill="#292D32"/>
</svg>
