<svg width="10" height="10" viewBox="0 0 10 10" fill="none" xmlns="http://www.w3.org/2000/svg">
    <path
        d="M1.21097 9.28952C1.07071 9.28927 0.937007 9.23013 0.842473 9.12652C0.746196 9.02375 0.698355 8.88477 0.710973 8.74452L0.833473 7.39751L6.49247 1.74051L8.26097 3.50851L2.60347 9.16502L1.25647 9.28752C1.24097 9.28902 1.22547 9.28952 1.21097 9.28952ZM8.61397 3.15501L6.84597 1.38701L7.90647 0.326514C8.00026 0.232625 8.12752 0.179871 8.26022 0.179871C8.39293 0.179871 8.52019 0.232625 8.61397 0.326514L9.67447 1.38701C9.76836 1.4808 9.82112 1.60806 9.82112 1.74076C9.82112 1.87347 9.76836 2.00073 9.67447 2.09451L8.61447 3.15451L8.61397 3.15501Z"
        fill="currentColor" />
</svg>