<svg width="16" height="16" viewBox="0 0 16 16" fill="none" xmlns="http://www.w3.org/2000/svg">
<path d="M12.4334 1.90002L12.84 4.47335L15.18 5.66669L14 8.00002L15.1867 10.3334L12.8267 11.5267L12.42 14.1L9.82669 13.6934L7.98002 15.5334L6.12669 13.6667L3.55335 14.0934L3.14002 11.5L0.813354 10.3134L2.00002 7.98002L0.820021 5.66669L3.16002 4.46002L3.56669 1.90668L6.14669 2.33335L8.00002 0.460018L9.84669 2.30668L12.4334 1.90002ZM6.33335 4.66669C6.06814 4.66669 5.81378 4.77204 5.62625 4.95958C5.43871 5.14711 5.33335 5.40147 5.33335 5.66669C5.33335 5.9319 5.43871 6.18626 5.62625 6.37379C5.81378 6.56133 6.06814 6.66669 6.33335 6.66669C6.59857 6.66669 6.85292 6.56133 7.04046 6.37379C7.228 6.18626 7.33335 5.9319 7.33335 5.66669C7.33335 5.40147 7.228 5.14711 7.04046 4.95958C6.85292 4.77204 6.59857 4.66669 6.33335 4.66669ZM9.66669 9.33335C9.40147 9.33335 9.14712 9.43871 8.95958 9.62625C8.77204 9.81378 8.66669 10.0681 8.66669 10.3334C8.66669 10.5986 8.77204 10.8529 8.95958 11.0405C9.14712 11.228 9.40147 11.3334 9.66669 11.3334C9.9319 11.3334 10.1863 11.228 10.3738 11.0405C10.5613 10.8529 10.6667 10.5986 10.6667 10.3334C10.6667 10.0681 10.5613 9.81378 10.3738 9.62625C10.1863 9.43871 9.9319 9.33335 9.66669 9.33335ZM5.60669 11.3334L11.3334 5.60668L10.3934 4.66669L4.66669 10.3934L5.60669 11.3334Z" fill="#004BEB"/>
</svg>
