<svg
  width="20"
  height="21"
  viewBox="0 0 20 21"
  fill="none"
  xmlns="http://www.w3.org/2000/svg"
>
  <path
    d="M9.05607 20.4043H10.9439C11.6636 20.4043 12.215 19.9646 12.3832 19.2724L12.785 17.5231L13.0841 17.4202L14.6075 18.3557C15.215 18.7392 15.9159 18.6456 16.4299 18.1311L17.7383 16.8309C18.2523 16.3164 18.3458 15.6054 17.9626 15.0067L17.0093 13.4913L17.1215 13.2107L18.8692 12.7991C19.5514 12.6307 20 12.0694 20 11.3585V9.50626C20 8.79532 19.5607 8.23404 18.8692 8.06566L17.1402 7.64471L17.0187 7.34536L17.972 5.82993C18.3551 5.23124 18.2617 4.52965 17.7477 4.00579L16.4393 2.69616C15.9346 2.19101 15.2336 2.09747 14.6262 2.47165L13.1028 3.4071L12.785 3.28549L12.3832 1.5362C12.215 0.84396 11.6636 0.404297 10.9439 0.404297H9.05607C8.33645 0.404297 7.78505 0.84396 7.61682 1.5362L7.20561 3.28549L6.88785 3.4071L5.37383 2.47165C4.76636 2.09747 4.05607 2.19101 3.5514 2.69616L2.25234 4.00579C1.73832 4.52965 1.63551 5.23124 2.02804 5.82993L2.97196 7.34536L2.85981 7.64471L1.13084 8.06566C0.439252 8.23404 0 8.79532 0 9.50626V11.3585C0 12.0694 0.448598 12.6307 1.13084 12.7991L2.8785 13.2107L2.98131 13.4913L2.03738 15.0067C1.64486 15.6054 1.74766 16.3164 2.26168 16.8309L3.56075 18.1311C4.07477 18.6456 4.78505 18.7392 5.39252 18.3557L6.90654 17.4202L7.20561 17.5231L7.61682 19.2724C7.78505 19.9646 8.33645 20.4043 9.05607 20.4043ZM9.20561 18.945C9.04673 18.945 8.96262 18.8795 8.93458 18.7298L8.37383 16.4099C7.80374 16.2696 7.27103 16.0451 6.86916 15.7925L4.83178 17.046C4.71963 17.1302 4.59813 17.1115 4.48598 16.9992L3.38318 15.8954C3.28037 15.7925 3.27103 15.6803 3.34579 15.5493L4.59813 13.5287C4.38318 13.1358 4.14019 12.6026 3.99065 12.032L1.6729 11.4801C1.52336 11.452 1.45794 11.3678 1.45794 11.2088V9.64658C1.45794 9.4782 1.51402 9.40336 1.6729 9.3753L3.98131 8.81403C4.13084 8.20598 4.41121 7.65406 4.57944 7.30795L3.33645 5.28737C3.25234 5.14705 3.26168 5.03479 3.36449 4.92254L4.47664 3.83741C4.58878 3.72516 4.69159 3.70645 4.83178 3.79064L6.85047 5.01608C7.25234 4.79157 7.82243 4.55771 8.38318 4.39868L8.93458 2.07876C8.96262 1.92909 9.04673 1.8636 9.20561 1.8636H10.7944C10.9533 1.8636 11.0374 1.92909 11.0561 2.07876L11.6262 4.41739C12.2056 4.56707 12.7103 4.80093 13.1308 5.02544L15.1589 3.79064C15.3084 3.70645 15.4019 3.72516 15.5234 3.83741L16.6262 4.92254C16.7383 5.03479 16.7383 5.14705 16.6542 5.28737L15.4112 7.30795C15.5888 7.65406 15.8598 8.20598 16.0093 8.81403L18.3271 9.3753C18.4766 9.40336 18.5421 9.4782 18.5421 9.64658V11.2088C18.5421 11.3678 18.4673 11.452 18.3271 11.4801L16 12.032C15.8505 12.6026 15.6168 13.1358 15.3925 13.5287L16.6449 15.5493C16.7196 15.6803 16.7196 15.7925 16.6075 15.8954L15.514 16.9992C15.3925 17.1115 15.2804 17.1302 15.1589 17.046L13.1215 15.7925C12.7196 16.0451 12.1963 16.2696 11.6262 16.4099L11.0561 18.7298C11.0374 18.8795 10.9533 18.945 10.7944 18.945H9.20561ZM10 13.9777C11.9533 13.9777 13.5607 12.3687 13.5607 10.4043C13.5607 8.45855 11.9533 6.84957 10 6.84957C8.04673 6.84957 6.42991 8.45855 6.42991 10.4043C6.42991 12.3594 8.03738 13.9777 10 13.9777ZM10 12.5278C8.84112 12.5278 7.88785 11.5736 7.88785 10.4043C7.88785 9.25369 8.84112 8.29953 10 8.29953C11.1402 8.29953 12.0935 9.25369 12.0935 10.4043C12.0935 11.5643 11.1402 12.5278 10 12.5278Z"
    fill="currentColor"
  />
</svg>
