<svg xmlns="http://www.w3.org/2000/svg" width="15.207" height="15.207" viewBox="0 0 15.207 15.207">
  <g id="txtimeicon" transform="translate(-77 -147.92)">
    <path id="Trazado_129" data-name="Trazado 129" d="M12.6,5A7.75,7.75,0,0,0,7.019,7.436l-.087-.6A.563.563,0,1,0,5.82,7l.282,1.9V8.96l.017.054a.05.05,0,0,0,.02.045.282.282,0,0,0,.028.048l.025.039a.3.3,0,0,0,.039.045l.031.034.051.042.023.017h0a.282.282,0,0,0,.065.034l.031.017.1.028h.183l1.9-.282a.569.569,0,0,0-.161-1.126l-.467.068a6.6,6.6,0,0,1,4.624-1.9A6.477,6.477,0,1,1,6.126,12.6.563.563,0,0,0,5,12.6,7.6,7.6,0,1,0,12.6,5Z" transform="translate(72 142.92)"/>
    <path id="Trazado_130" data-name="Trazado 130" d="M24.906,13.563a.563.563,0,1,0-1.126,0v4.455l-2.149,1.194a.564.564,0,1,0,.549.986l2.444-1.355h.02l.048-.034.042-.034.037-.039a.446.446,0,0,0,.034-.042l.031-.045.025-.048a.379.379,0,0,0,.02-.051L24.9,18.5v-.054a.42.42,0,0,0,0-.059v-.023Z" transform="translate(60.261 137.173)"/>
  </g>
</svg>
