<svg viewBox="0 0 22 22" fill="none" xmlns="http://www.w3.org/2000/svg">
  <path
    d="M16.5755 12.5307L17.0994 13.0674C17.104 13.0629 17.1084 13.0584 17.1129 13.0539L16.5755 12.5307ZM15.9741 14.1644L16.7216 14.1021L16.7208 14.0933L15.9741 14.1644ZM20.0434 16.0387H20.7934C20.7934 15.6245 20.4576 15.2887 20.0434 15.2887V16.0387ZM20.0434 11.9293V12.6793C20.4576 12.6793 20.7934 12.3435 20.7934 11.9293H20.0434ZM0.25 11.3881C0.25 11.8023 0.585786 12.1381 1 12.1381C1.41421 12.1381 1.75 11.8023 1.75 11.3881H0.25ZM2.8442 4.13154L2.57912 3.42995L2.57879 3.43008L2.8442 4.13154ZM10.8023 1.12469L11.0674 1.82628L11.0682 1.826L10.8023 1.12469ZM12.6282 6.71746C12.6282 7.13167 12.964 7.46746 13.3782 7.46746C13.7924 7.46746 14.1282 7.13167 14.1282 6.71746H12.6282ZM20.1024 16.0389V16.7889C20.1113 16.7889 20.1202 16.7887 20.1291 16.7884L20.1024 16.0389ZM15.9729 14.1646L16.7204 14.1023L16.7196 14.0935L15.9729 14.1646ZM16.5743 12.5309L17.0982 13.0675C17.1028 13.0631 17.1072 13.0586 17.1117 13.0541L16.5743 12.5309ZM20.1024 11.9295L20.1291 11.18C20.1202 11.1797 20.1113 11.1795 20.1024 11.1795V11.9295ZM5.51028 10.2272C5.09607 10.2272 4.76028 10.5629 4.76028 10.9772C4.76028 11.3914 5.09607 11.7272 5.51028 11.7272V10.2272ZM12.5263 11.7272C12.9405 11.7272 13.2763 11.3914 13.2763 10.9772C13.2763 10.5629 12.9405 10.2272 12.5263 10.2272V11.7272ZM16.0516 11.994C15.4767 12.5552 15.1448 13.3668 15.2275 14.2355L16.7208 14.0933C16.6832 13.6992 16.8324 13.328 17.0994 13.0674L16.0516 11.994ZM15.2267 14.2267C15.354 15.7542 16.7257 16.7887 18.1391 16.7887V15.2887C17.3875 15.2887 16.7747 14.7396 16.7215 14.1021L15.2267 14.2267ZM18.1391 16.7887H20.0434V15.2887H18.1391V16.7887ZM19.2934 16.0387V17.2314H20.7934V16.0387H19.2934ZM19.2934 17.2314C19.2934 18.8919 17.9353 20.25 16.2748 20.25V21.75C18.7638 21.75 20.7934 19.7203 20.7934 17.2314H19.2934ZM16.2748 20.25H4.76859V21.75H16.2748V20.25ZM4.76859 20.25C3.10808 20.25 1.75 18.8919 1.75 17.2314H0.25C0.25 19.7203 2.27965 21.75 4.76859 21.75V20.25ZM1.75 17.2314V10.486H0.25V17.2314H1.75ZM1.75 10.486C1.75 8.82552 3.10808 7.46744 4.76859 7.46744V5.96744C2.27965 5.96744 0.25 7.9971 0.25 10.486H1.75ZM4.76859 7.46744H16.2748V5.96744H4.76859V7.46744ZM16.2748 7.46744C17.9353 7.46744 19.2934 8.82552 19.2934 10.486H20.7934C20.7934 7.9971 18.7638 5.96744 16.2748 5.96744V7.46744ZM19.2934 10.486V11.9293H20.7934V10.486H19.2934ZM20.0434 11.1793H18.0188V12.6793H20.0434V11.1793ZM18.0188 11.1793C17.2566 11.1793 16.5512 11.4806 16.0382 12.0075L17.1129 13.0539C17.3415 12.8191 17.6585 12.6793 18.0188 12.6793V11.1793ZM1.75 11.3881V6.80769H0.25V11.3881H1.75ZM1.75 6.80769C1.75 5.92529 2.29013 5.14309 3.10962 4.83301L2.57879 3.43008C1.17321 3.96192 0.25 5.30465 0.25 6.80769H1.75ZM3.10929 4.83314L11.0674 1.82628L10.5373 0.423099L2.57912 3.42995L3.10929 4.83314ZM11.0682 1.826C11.8181 1.54174 12.6282 2.09823 12.6282 2.90879H14.1282C14.1282 1.05327 12.2722 -0.234508 10.5365 0.423377L11.0682 1.826ZM12.6282 2.90879V6.71746H14.1282V2.90879H12.6282ZM20.3546 12.9518V15.0166H21.8546V12.9518H20.3546ZM20.3546 15.0166C20.3546 15.1536 20.2439 15.2833 20.0756 15.2893L20.1291 16.7884C21.0834 16.7543 21.8546 15.9821 21.8546 15.0166H20.3546ZM20.1024 15.2889H18.1379V16.7889H20.1024V15.2889ZM18.1379 15.2889C17.3863 15.2889 16.7735 14.7398 16.7204 14.1023L15.2255 14.2269C15.3528 15.7544 16.7245 16.7889 18.1379 16.7889V15.2889ZM16.7196 14.0935C16.682 13.6993 16.8312 13.3282 17.0982 13.0675L16.0504 11.9942C15.4755 12.5554 15.1436 13.367 15.2263 14.2357L16.7196 14.0935ZM17.1117 13.0541C17.3403 12.8192 17.6573 12.6795 18.0176 12.6795V11.1795C17.2554 11.1795 16.55 11.4808 16.037 12.0077L17.1117 13.0541ZM18.0176 12.6795H20.1024V11.1795H18.0176V12.6795ZM20.0756 12.679C20.2439 12.6851 20.3546 12.8148 20.3546 12.9518H21.8546C21.8546 11.9863 21.0834 11.2141 20.1291 11.18L20.0756 12.679ZM5.51028 11.7272H12.5263V10.2272H5.51028V11.7272Z"
    fill="currentColor"
  />
</svg>
