<svg xmlns="http://www.w3.org/2000/svg" width="57.75" height="77" viewBox="0 0 57.75 77">
  <path id="uploadicon" d="M4.812-46.922V-67.375H-25.266a3.6,3.6,0,0,0-3.609,3.609V6.016a3.6,3.6,0,0,0,3.609,3.609H25.265a3.6,3.6,0,0,0,3.609-3.609V-43.312H8.422A3.62,3.62,0,0,1,4.812-46.922Zm9.8,32.486h-9.8V-2.4A2.406,2.406,0,0,1,2.406,0H-2.406A2.406,2.406,0,0,1-4.813-2.4V-14.436h-9.8a2.407,2.407,0,0,1-1.695-4.115l14.5-14.392a2.564,2.564,0,0,1,3.615,0l14.5,14.392A2.4,2.4,0,0,1,14.615-14.436ZM27.822-51.584,13.1-66.322a3.607,3.607,0,0,0-2.557-1.053H9.625v19.25h19.25v-.917A3.6,3.6,0,0,0,27.822-51.584Z" transform="translate(28.875 67.375)" fill="#dedede"/>
</svg>
